<svg xmlns="http://www.w3.org/2000/svg" width="38.033" height="38.033" viewBox="0 0 38.033 38.033"><g transform="translate(6213 820)"><circle cx="17.5" cy="17.5" r="17.5" transform="translate(-6211 -819)" fill="#fff"/><g transform="translate(-6213 -820)"><rect width="11.837" height="1.315" transform="translate(11.125 22.878)" fill="#3a85f7"/><rect width="11.837" height="1.315" transform="translate(11.125 19.96)" fill="#3a85f7"/><rect width="11.837" height="1.315" transform="translate(11.125 17.043)" fill="#3a85f7"/><rect width="11.837" height="1.315" transform="translate(11.125 25.963)" fill="#3a85f7"/><path d="M19.016,0A19.016,19.016,0,1,0,38.033,19.016,19.016,19.016,0,0,0,19.016,0Zm6.547,26.871v2.311a2.31,2.31,0,0,1-2.31,2.311H10.834a2.31,2.31,0,0,1-2.311-2.311V12.141A2.31,2.31,0,0,1,10.834,9.83h12.42a2.31,2.31,0,0,1,2.31,2.311s0,2.31,0,2.31Zm2.96-2.959v2.31a2.311,2.311,0,0,1-1.644,2.212V12.141a3.63,3.63,0,0,0-3.625-3.626H11.581A2.311,2.311,0,0,1,13.793,6.87h12.42a2.31,2.31,0,0,1,2.31,2.311v2.31h0Z" fill="#3a85f7"/><rect width="11.837" height="1.315" transform="translate(11.125 14.125)" fill="#3a85f7"/></g></g></svg>