<svg xmlns="http://www.w3.org/2000/svg" width="46.34" height="46.332" viewBox="0 0 46.34 46.332">
  <g id="auction" transform="translate(-3.304 -7.024)">
    <g id="Grupo_531" data-name="Grupo 531" transform="translate(3.304 7.024)">
      <g id="Grupo_530" data-name="Grupo 530" transform="translate(0 0)">
        <path id="Caminho_580" data-name="Caminho 580" d="M105.86,42.218,81.766,18.124l4.654-4.646a1.954,1.954,0,0,0,2.673-2.847L79.059.606A1.949,1.949,0,1,0,76.3,3.362l-.083-.083L63.48,16.011l.083.091a1.949,1.949,0,0,0-2.756,2.756L70.833,28.892A1.955,1.955,0,1,0,73.6,26.128l.083.082,4.654-4.646,24.086,24.086a2.43,2.43,0,0,0,3.441-3.433Z" transform="translate(-60.231 -0.03)" fill="#fff"/>
      </g>
    </g>
  </g>
</svg>
