<svg xmlns="http://www.w3.org/2000/svg" width="49.25" height="58.65" viewBox="0 0 49.25 58.65">
  <g id="Grupo_16" data-name="Grupo 16" transform="translate(0 0)">
    <circle id="Elipse_2" data-name="Elipse 2" cx="4.972" cy="4.972" r="4.972" transform="translate(19.653)" fill="#ffaa20"/>
    <path id="Caminho_5" data-name="Caminho 5" d="M260.972,48.941A4.971,4.971,0,0,1,256,53.913V43.97A4.971,4.971,0,0,1,260.972,48.941Z" transform="translate(-231.375 -43.969)" fill="#ff8900"/>
    <circle id="Elipse_3" data-name="Elipse 3" cx="6.448" cy="6.448" r="6.448" transform="translate(18.178 45.755)" fill="#ffe670"/>
    <g id="Grupo_15" data-name="Grupo 15" transform="translate(24.625 45.754)">
      <path id="Caminho_6" data-name="Caminho 6" d="M262.448,360.708A6.448,6.448,0,0,1,256,367.156v-12.9a6.451,6.451,0,0,1,6.448,6.448Z" transform="translate(-256 -354.26)" fill="#ffd400"/>
    </g>
    <path id="Caminho_7" data-name="Caminho 7" d="M165.735,129.668H127.982V107.189A17.916,17.916,0,0,1,145.9,89.273h1.922a17.916,17.916,0,0,1,17.916,17.916Z" transform="translate(-122.234 -82.592)" fill="#ffd400"/>
    <path id="Caminho_8" data-name="Caminho 8" d="M274.877,107.186v22.479H256V89.27h.961a17.9,17.9,0,0,1,17.916,17.916Z" transform="translate(-231.375 -82.59)" fill="#ffaa20"/>
    <path id="Caminho_9" data-name="Caminho 9" d="M138.248,354.872H89v-.38a7.078,7.078,0,0,1,7.078-7.078h35.095a7.078,7.078,0,0,1,7.078,7.078v.38Z" transform="translate(-88.998 -302.67)" fill="#ffaa20"/>
    <path id="Caminho_10" data-name="Caminho 10" d="M280.625,354.5v.379H256V347.42h17.547a7.073,7.073,0,0,1,7.078,7.078Z" transform="translate(-231.375 -302.674)" fill="#ff8900"/>
  </g>
</svg>
