<svg id="Grupo_542" data-name="Grupo 542" xmlns="http://www.w3.org/2000/svg" width="21.89" height="28.832" viewBox="0 0 21.89 28.832">
  <g id="Grupo_1" data-name="Grupo 1" transform="translate(0 4.134)">
    <path id="Caminho_1" data-name="Caminho 1" d="M273.862,182.436a.739.739,0,0,0-.047-.556,6.756,6.756,0,0,1-.4-.99,7.653,7.653,0,0,1-.344-1.571.28.28,0,0,0-.373-.233c-3.174,1.136-9.6,4.716-6.793,12.964.006.018.013.035.02.052.268.625,1.611,3.465,3.123,1.505,1.692-2.193,1.226-3.84,3.679-3.656.755.057,1.221-1,1.505-2.491a.759.759,0,0,0-.055-.459,6.452,6.452,0,0,1-.312-4.564Z" transform="translate(-265.208 -179.069)" fill="#00ffd5"/>
  </g>
  <g id="Grupo_2" data-name="Grupo 2" transform="translate(1.151 16.747)">
    <path id="Caminho_2" data-name="Caminho 2" d="M293.732,337.942a5.353,5.353,0,0,0-6.844-3.217,4.566,4.566,0,0,0-2.743,5.837,3.936,3.936,0,0,0,4.966,2.388,1.437,1.437,0,0,0,.911-1.845,1.414,1.414,0,0,0-1.79-.843,1.115,1.115,0,0,1-1.425-.653,1.735,1.735,0,0,1,1.04-2.224,2.523,2.523,0,0,1,3.225,1.516,3.507,3.507,0,0,1-2.107,4.484l-.1.036a5.02,5.02,0,0,1-4.272-.906,6,6,0,0,1-2.609-4.981.146.146,0,0,0-.242-.11c-.826.716-1.578.1-2.1-.623a.133.133,0,0,0-.241.073,10.756,10.756,0,0,0,.563,4.042h0a8.821,8.821,0,0,0,.726,1.572l0,0,.028.054a7.572,7.572,0,0,0,9.2,3.5A6.338,6.338,0,0,0,293.732,337.942Z" transform="translate(-279.388 -334.408)" fill="#00ffd5"/>
  </g>
  <path id="Caminho_3" data-name="Caminho 3" d="M378.789,131.637c-1.245-1.676-4.722-4.468-8.249-3.128a.531.531,0,0,0-.274.236,6.856,6.856,0,0,0-.386,5.478,5.815,5.815,0,0,0,.55,1.247,6.431,6.431,0,1,0,8.359-3.833ZM378,138.773a2,2,0,1,1,2-2A2,2,0,0,1,378,138.773Z" transform="translate(-361.026 -128.156)" fill="#00ffd5"/>
</svg>
