<svg xmlns="http://www.w3.org/2000/svg" xmlns:xlink="http://www.w3.org/1999/xlink" width="1728" height="1152" viewBox="0 0 1728 1152">
  <defs>
    <clipPath id="clip-path">
      <rect id="Retângulo_933" data-name="Retângulo 933" width="1728" height="1152" rx="3.5" fill="none"/>
    </clipPath>
    <filter id="Caminho_891" x="1251.85" y="630.268" width="84.504" height="113.063" filterUnits="userSpaceOnUse">
      <feOffset dy="3" input="SourceAlpha"/>
      <feGaussianBlur stdDeviation="3" result="blur"/>
      <feFlood flood-opacity="0.161"/>
      <feComposite operator="in" in2="blur"/>
      <feComposite in="SourceGraphic"/>
    </filter>
    <linearGradient id="linear-gradient" y1="0.5" x2="1" y2="0.5" gradientUnits="objectBoundingBox">
      <stop offset="0" stop-color="#444dc6" stop-opacity="0"/>
      <stop offset="1" stop-color="#3f4ad0" stop-opacity="0.502"/>
    </linearGradient>
    <linearGradient id="linear-gradient-2" x1="-1.48" y1="0.5" x2="-0.48" y2="0.5" gradientUnits="objectBoundingBox">
      <stop offset="0" stop-color="#524f63" stop-opacity="0"/>
      <stop offset="1" stop-color="#524f63" stop-opacity="0.502"/>
    </linearGradient>
    <linearGradient id="linear-gradient-3" x1="0.492" y1="1.066" x2="0.562" y2="-3.899" gradientUnits="objectBoundingBox">
      <stop offset="0" stop-color="#636476" stop-opacity="0"/>
      <stop offset="1" stop-color="#4d4e64" stop-opacity="0.702"/>
    </linearGradient>
  </defs>
  <g id="Grupo_680" data-name="Grupo 680" transform="translate(-17776 -2287.045)">
    <g id="Grupo_673" data-name="Grupo 673" transform="translate(12152 1022.045)">
      <g id="Grupo_546" data-name="Grupo 546" transform="translate(5624 1265)" clip-path="url(#clip-path)">
        <path id="Caminho_588" data-name="Caminho 588" d="M1310.132,1305.98c52.339-121.843,63.552-298.445,129.639-344.6,86.861-60.672,155.405,14.4,346.714-18.394,72.039-12.365,174.874-29.99,242.765-97.459,147.187-146.266,111.36-507.917-72.154-658.1-130.56-106.867-223.373-14.707-552.96-80.064-361.229-71.693-403.2-213-668.429-204.48-73.382,2.342-572.625,87.9-706.333,284.544-139.564,244.223-18.86,380.015,150.88,463,214.369,92.544,433.457-18.941,563.21,93.455,9.139,7.91,71.155,63.168,81.293,145.92,5.875,48.154-.384,81.216-22.042,122.573-143.962,275.174-229.626,425.982-83.472,564.444S1195.2,1573.552,1310.132,1305.98Z" transform="translate(529.996 -276.861)" fill="#fec52b"/>
      </g>
    </g>
    <ellipse id="Elipse_56" data-name="Elipse 56" cx="430.448" cy="26.208" rx="430.448" ry="26.208" transform="translate(18591.523 3206.993)" opacity="0.11"/>
    <path id="Caminho_865" data-name="Caminho 865" d="M283.289,301.355c.029,0,.052.01.082.01A13.071,13.071,0,0,1,296.119,291.1h16.923V262.052h2.58V199.76h1.706v-.517h2.527v.517h4.02v62.292h2.063V291.1h15.125a13.076,13.076,0,0,1,12.762,10.316,5.716,5.716,0,1,1-1.784.069,11.321,11.321,0,0,0-10.977-8.637H320.624v8.6a5.814,5.814,0,1,1-1.748,0v-8.6H296.119a11.323,11.323,0,0,0-11.026,8.823,5.741,5.741,0,1,1-1.8-.314Z" transform="translate(18557.732 2909.135)" fill="#524e64"/>
    <rect id="Retângulo_1228" data-name="Retângulo 1228" width="84.037" height="119.689" rx="8.081" transform="translate(18828.227 2982.737)" fill="#524e64"/>
    <path id="Caminho_866" data-name="Caminho 866" d="M393.149,195.666h-102.5a13.091,13.091,0,0,0,0,26.181h102.5a13.091,13.091,0,0,0,0-26.181Z" transform="translate(18557.93 2901.001)" fill="#524e64"/>
    <path id="Caminho_867" data-name="Caminho 867" d="M445.165,301.355c-.026,0-.052.01-.079.01A13.074,13.074,0,0,0,432.338,291.1H415.412V262.052h-2.58V199.76h-1.7v-.517H408.6v.517h-4.02v62.292h-2.066V291.1H387.394a13.079,13.079,0,0,0-12.765,10.316,5.718,5.718,0,1,0,1.788.069,11.318,11.318,0,0,1,10.977-8.637h20.439v8.6a5.811,5.811,0,1,0,1.748,0v-8.6h22.757a11.319,11.319,0,0,1,11.023,8.823,5.744,5.744,0,1,0,1.8-.314Z" transform="translate(18766.748 2909.135)" fill="#524e64"/>
    <rect id="Retângulo_1229" data-name="Retângulo 1229" width="84.037" height="119.689" rx="8.081" transform="translate(19140.672 2982.737)" fill="#524e64"/>
    <path id="Caminho_868" data-name="Caminho 868" d="M368.018,195.666h102.5a13.091,13.091,0,0,1,0,26.181h-102.5a13.091,13.091,0,1,1,0-26.181Z" transform="translate(18733.84 2901.001)" fill="#524e64"/>
    <path id="Caminho_869" data-name="Caminho 869" d="M283.825,142.134a17.051,17.051,0,0,0-.75,10.453,39.043,39.043,0,0,0,3.948,9.861q2.922-4.218,5.847-8.43a33.083,33.083,0,0,0,3.8-6.492,11.121,11.121,0,0,0,.547-7.373C294.681,132.145,286.261,136.618,283.825,142.134Z" transform="translate(18569.379 2764.874)" fill="#7f414d"/>
    <g id="Grupo_655" data-name="Grupo 655" transform="translate(18849.266 3037.099)">
      <path id="Caminho_870" data-name="Caminho 870" d="M322.241,185.888,369.6,215.222a10.789,10.789,0,0,1,4.872,11.635l-40.1,92.127H322.643L345.079,229.4l-50.83-6.718Z" transform="translate(-253.398 -158.332)" fill="#928fc9"/>
      <path id="Caminho_871" data-name="Caminho 871" d="M291.6,229.428,289.985,244.4s-5.235,16.687.743,17.293,23.12,1.555,19.722-3.287-6.027-18.442-6.027-18.442l-2.374-11.688Z" transform="translate(-267.916 -61.956)" fill="#37354c"/>
      <path id="Caminho_872" data-name="Caminho 872" d="M304.57,226.542l-1.441,16.985s23.788,7.432,29.763,8.037,6.505-2.1,3.1-6.941-21.362-11.5-21.362-11.5l-3.189-6.577Z" transform="translate(-233.206 -65.89)" fill="#37354c"/>
      <path id="Caminho_873" data-name="Caminho 873" d="M281.771,193.32V225.2a20.7,20.7,0,0,0,20.7,20.7h51.076l.7-53.128-51.681-15.3Z" transform="translate(-281.771 -177.471)" fill="#928fc9"/>
      <path id="Caminho_874" data-name="Caminho 874" d="M297.5,187.971l40.275,36.72a10.8,10.8,0,0,1,4.875,11.639l-33.014,84.738H297.9l15.348-82.2-28.159-19.745Z" transform="translate(-274.217 -153.595)" fill="#b2aed6"/>
    </g>
    <ellipse id="Elipse_57" data-name="Elipse 57" cx="7.977" cy="7.977" rx="7.977" ry="7.977" transform="translate(18847.191 2919.427)" fill="#ffbcc6"/>
    <path id="Caminho_875" data-name="Caminho 875" d="M287.076,142.364a5.26,5.26,0,0,0,0,10.48Z" transform="translate(18568.635 2779.799)" fill="#ef8e9e"/>
    <path id="Caminho_876" data-name="Caminho 876" d="M354.685,243.932l-72.477.55-.629-76.651a12.4,12.4,0,0,1,12.306-12.5l47.671-.363a12.4,12.4,0,0,1,12.5,12.31Z" transform="translate(18567.057 2808.466)" fill="#717bff"/>
    <path id="Caminho_877" data-name="Caminho 877" d="M298.787,183.542h0a8.823,8.823,0,0,1-8.889-8.758l-.2-26.813a1.185,1.185,0,0,1,1.175-1.195l15.273-.115a1.185,1.185,0,0,1,1.2,1.175l.2,26.816A8.822,8.822,0,0,1,298.787,183.542Z" transform="translate(18585.512 2789.572)" fill="#ffbcc6"/>
    <path id="Caminho_878" data-name="Caminho 878" d="M284.193,164.206v-2.947a28.2,28.2,0,1,1,56.406,0v11.557a10.538,10.538,0,0,1-.252,2.262,28.648,28.648,0,1,1-56.153-10.873Z" transform="translate(18570.975 2758.632)" fill="#ffbcc6"/>
    <g id="Grupo_657" data-name="Grupo 657" transform="translate(18902.492 2918.496)">
      <path id="Caminho_881" data-name="Caminho 881" d="M298.029,149.831a8.587,8.587,0,1,0,8.587-8.587A8.586,8.586,0,0,0,298.029,149.831Z" transform="translate(-298.029 -141.244)" fill="#ffbcc6"/>
      <path id="Caminho_882" data-name="Caminho 882" d="M300.713,142.144a5.662,5.662,0,0,1,0,11.282Z" transform="translate(-291.926 -139.198)" fill="#ef8e9e"/>
    </g>
    <path id="Caminho_883" data-name="Caminho 883" d="M299.4,157.914l-8.817,2.2,6.245,4.776-3.306,53.635,4.408,5.511,6.98-6.98-4.041-51.8,5.143-5.511Z" transform="translate(18587.535 2815.157)" fill="#35324c"/>
    <path id="Caminho_884" data-name="Caminho 884" d="M289.757,155.346,301.81,160.8l5.59-5.592,2.519,12.142-8.109-2.807-11.852,3.743Z" transform="translate(18585.652 2809.013)" fill="#fff"/>
    <path id="Caminho_885" data-name="Caminho 885" d="M335.228,168.986l-4.695-6.139c.586-3.945,1.247-8.365,1.837-12.31-7.723,3.084-16.618,2.387-24.878,1.454-5.287-.6-10.689-1.267-15.459-3.631s-8.862-6.764-9.389-12.058a81.722,81.722,0,0,1,41.791-3.4c3.349.6,6.764,1.441,9.5,3.46s4.665,5.461,4,8.8a12.542,12.542,0,0,1,6.073,1.987,8.2,8.2,0,0,1,2.685,5.222,21.983,21.983,0,0,1-1.071,10.519c-1.346.39-3.28.082-4.125,1.2-.121,4.21-.085,7.978-.2,12.189-1.015.229-1.981.53-3,.76C337.444,174.741,336.718,170.934,335.228,168.986Z" transform="translate(18569.477 2755.361)" fill="#a0616b"/>
    <path id="Caminho_886" data-name="Caminho 886" d="M302.071,179.23l19.2,3.754,34.263,10.864,32.592-49.306,8.357,4.179L366.4,215.576l-66.02-10.029Z" transform="translate(18609.799 2784.751)" fill="#717bff"/>
    <path id="Caminho_887" data-name="Caminho 887" d="M348.054,153.055a11.41,11.41,0,1,0-12.074,10.7A11.41,11.41,0,0,0,348.054,153.055Z" transform="translate(18666.367 2776.599)" fill="#ffbcc6"/>
    <path id="Caminho_888" data-name="Caminho 888" d="M326.6,155.082l-6.643,1.526A37.216,37.216,0,0,0,297.4,172.2l-24.954,37.276a31.182,31.182,0,0,0-5.255,17.335V230h36.769v-6.754l-9.193-8.558,25.572-40.468Z" transform="translate(18534.344 2808.718)" fill="#717bff"/>
    <path id="Caminho_889" data-name="Caminho 889" d="M292.3,181.567a8.47,8.47,0,1,1-8.469-8.47A8.471,8.471,0,0,1,292.3,181.567Z" transform="translate(18552.916 2849.682)" fill="#ffbcc6"/>
    <path id="Caminho_890" data-name="Caminho 890" d="M372.575,226.431,343.49,149.649l11.462-8.82L380.76,204.4l63.2-30.431c6.479-2.076,14.284-.746,19.087-.746,8.816,0,38.848,2.635,38.848,2.635l5.913,115.247-73.93,1.421,1.64-81.83Z" transform="translate(18707.834 2776.309)" fill="#f78834"/>
    <g transform="matrix(1, 0, 0, 1, 17776, 2287.04)" filter="url(#Caminho_891)">
      <path id="Caminho_891-2" data-name="Caminho 891" d="M347.765,237.778l-8.7-94.307,56.679-.756,9.825,85.4Z" transform="translate(921.78 493.55)" fill="#fff"/>
    </g>
    <path id="Caminho_892" data-name="Caminho 892" d="M387.564,134.442a10.349,10.349,0,0,0-8.325,2.311c-7.464,5.323-2.963,19.047-2.357,20.652,1.637,2.469,4.259,4.141,6.855,7.2.1.124.213.255.318.383,2.763-4.767,7.258-15.646,8.1-16.739,1.287-1.676,5.431-6.7,4.685-8.931C396.119,137.179,389.611,134.816,387.564,134.442Z" transform="translate(18779.449 2761.448)" fill="#37354c"/>
    <path id="Caminho_893" data-name="Caminho 893" d="M305.707,182.065H381.8v-5.579H305.707a2.79,2.79,0,0,0-2.789,2.793h0A2.787,2.787,0,0,0,305.707,182.065Z" transform="translate(18615.58 2857.388)" fill="#37354c"/>
    <path id="Caminho_894" data-name="Caminho 894" d="M310.147,222.021h73.377a7.156,7.156,0,0,0,6.918-5.32l12.948-48.794a7.156,7.156,0,0,0-6.914-8.993H332.4a7.163,7.163,0,0,0-6.918,5.323Z" transform="translate(18632.018 2817.432)" fill="#37354c"/>
    <path id="Caminho_895" data-name="Caminho 895" d="M323.47,173.874a4.4,4.4,0,0,0,4.472,5.762,8.014,8.014,0,0,0,7.386-5.762,4.4,4.4,0,0,0-4.475-5.762A8.011,8.011,0,0,0,323.47,173.874Z" transform="translate(18661.906 2838.347)" fill="#fff"/>
    <path id="Caminho_896" data-name="Caminho 896" d="M361.794,149.439a9.88,9.88,0,1,0-10.457,9.268A9.882,9.882,0,0,0,361.794,149.439Z" transform="translate(18704.563 2772.069)" fill="#a0616b"/>
    <path id="Caminho_897" data-name="Caminho 897" d="M404.408,145.862a7.977,7.977,0,1,1-7.978-7.978A7.977,7.977,0,0,1,404.408,145.862Z" transform="translate(18810.078 2769.612)" fill="#a0616b"/>
    <path id="Caminho_898" data-name="Caminho 898" d="M395.072,231.162l47.258-27.969-2.4-46.85-6.6.4-61,39.008-1.234,61.5,51.255-.986Z" transform="translate(18770.613 2811.584)" fill="#df7c30"/>
    <path id="Caminho_899" data-name="Caminho 899" d="M388.839,182.929h0a8.82,8.82,0,0,1-8.889-8.754l-.2-29.845a1.185,1.185,0,0,1,1.175-1.195l15.273-.118a1.19,1.19,0,0,1,1.195,1.179l.2,29.845A8.82,8.82,0,0,1,388.839,182.929Z" transform="translate(18790.279 2781.284)" fill="#a0616b"/>
    <path id="Caminho_900" data-name="Caminho 900" d="M430.067,158.456v-2.95c0-15.508-12.69-25.169-28.2-25.169s-28.2,9.661-28.2,25.169v11.56a10.268,10.268,0,0,0,.255,2.259,28.646,28.646,0,1,0,56.15-10.869Z" transform="translate(18776.439 2752.451)" fill="#a0616b"/>
    <path id="Caminho_903" data-name="Caminho 903" d="M388.365,146.187a8.587,8.587,0,1,1-8.587-8.587A8.59,8.59,0,0,1,388.365,146.187Z" transform="translate(18770.822 2768.966)" fill="#a0616b"/>
    <path id="Caminho_904" data-name="Caminho 904" d="M389.461,155.4l-8.817,2.2,6.245,4.776-3.306,53.635,4.408,5.511,6.98-6.98-4.041-51.8,5.143-5.51Z" transform="translate(18792.318 2809.452)" fill="#35324c"/>
    <path id="Caminho_905" data-name="Caminho 905" d="M420.612,196.355S458.2,239.2,463.46,248.976,489.019,301.6,489.019,301.6l-18.039,21.8h-16.54s3.758-6.764,9.02-8.267,14.359-16.412,14.359-16.412l-72.241-72.294.753-26.309Z" transform="translate(18849.016 2902.568)" fill="#d98e9d"/>
    <g id="Grupo_662" data-name="Grupo 662" transform="translate(19278.85 2969.181)">
      <path id="Caminho_906" data-name="Caminho 906" d="M503.225,303.207c-.026,0-.049.007-.079.007A13.074,13.074,0,0,0,490.4,292.95H473.472V263.9H470.9v-62.3H469.19V201.1h-2.527v.514h-4.02v62.3h-2.066V292.95H445.455a13.076,13.076,0,0,0-12.762,10.316,5.717,5.717,0,1,0,1.784.069,11.318,11.318,0,0,1,10.977-8.636h20.439v8.6a5.811,5.811,0,1,0,1.748,0v-8.6H490.4a11.32,11.32,0,0,1,11.026,8.823,5.741,5.741,0,1,0,1.8-.314Z" transform="translate(-380.082 -55.835)" fill="#524e64"/>
      <rect id="Retângulo_1230" data-name="Retângulo 1230" width="137.025" height="35.138" rx="4.749" transform="matrix(0.115, -0.993, 0.993, 0.115, 95.771, 136.123)" fill="#524e64"/>
      <path id="Caminho_907" data-name="Caminho 907" d="M426.076,197.518h102.5a13.091,13.091,0,0,1,0,26.181h-102.5a13.091,13.091,0,0,1,0-26.181Z" transform="translate(-412.987 -63.969)" fill="#524e64"/>
    </g>
    <g id="Grupo_663" data-name="Grupo 663" transform="translate(19248.074 2885.967)">
      <path id="Caminho_908" data-name="Caminho 908" d="M430.027,142.529c-.216-3.578,3.163-6.793,6.747-6.875a8.941,8.941,0,0,1,8.172,5.913,12.614,12.614,0,0,1-1.107,10.365c-2.2,3.961-7.245,6.986-11.246,4.862a8.212,8.212,0,0,1-3.876-6.086,24.2,24.2,0,0,1,.377-7.438" transform="translate(-346.81 -121.432)" fill="#a0616b"/>
      <path id="Caminho_909" data-name="Caminho 909" d="M431.235,204.4l7.978,22.141a32.585,32.585,0,0,1,1.8,8.122l7.137,78.969a6.525,6.525,0,0,1-6.24,7.52l-29.429-.743s-6-4.23,2.586-5.746,23.847-8.044,23.847-8.044L404.874,202.735Z" transform="translate(-400.659 31.108)" fill="#ffbcc6"/>
      <path id="Caminho_910" data-name="Caminho 910" d="M484.076,272.783H425.785l3.755-82.168c-.75-21.8,21.725-37.27,32.8-40.3h0C470.451,148.087,484.076,272.783,484.076,272.783Z" transform="translate(-353.111 -88.166)" fill="#9092ee"/>
      <path id="Caminho_911" data-name="Caminho 911" d="M473.773,162.459v-2.95a28.2,28.2,0,0,0-56.405,0v11.56a10.289,10.289,0,0,0,.255,2.259,28.646,28.646,0,1,0,56.15-10.869Z" transform="translate(-372.252 -131.308)" fill="#ffbcc6"/>
      <path id="Caminho_912" data-name="Caminho 912" d="M476.261,187.7l-66.908,15.557c-13.4,1.332.753,42.848.753,42.848l24.466.419,1.516-20.206s63.14-2.177,87.9-3.117a12.392,12.392,0,0,0,11.891-11.521L534.553,187.7Z" transform="translate(-403.587 -3.082)" fill="#37354c"/>
    </g>
    <path id="Caminho_913" data-name="Caminho 913" d="M519.257,150.29s-32.051,17-38.065,25.271-30.82,25.559-30.82,25.559-4.512-9.773-15.787-21.048c-3.834-3.834-27.062-27.815-27.062-27.815l-6.767,7.517s24.056,56.379,45.857,60.891,32.323-12.781,35.332-15.034,35.328-33.076,35.328-33.076Z" transform="translate(18838.051 2797.822)" fill="#444bcc"/>
    <path id="Caminho_914" data-name="Caminho 914" d="M412.657,183.146a9.879,9.879,0,1,0-10.454,9.268A9.877,9.877,0,0,0,412.657,183.146Z" transform="translate(18820.225 2848.714)" fill="#ffbcc6"/>
    <path id="Caminho_915" data-name="Caminho 915" d="M415.762,241.649s-8.9,2.01-10.342,4.024.861,4.308.861,4.308L441.743,249l7.058-1.028-1.725-13.5s-2.01,5.746-7.468,6.034S415.762,241.649,415.762,241.649Z" transform="translate(18847.578 2989.227)" fill="#37354c"/>
    <path id="Caminho_916" data-name="Caminho 916" d="M417.252,158.577a9.88,9.88,0,1,0-10.457,9.268A9.884,9.884,0,0,0,417.252,158.577Z" transform="translate(18830.666 2792.848)" fill="#ffbcc6"/>
    <path id="Caminho_917" data-name="Caminho 917" d="M484.076,187.7s-29.727,17.813-34.991,18.566-23.3-18.566-23.3-18.566Z" transform="translate(18894.963 2882.885)" fill="#fff"/>
    <path id="Caminho_918" data-name="Caminho 918" d="M426.932,151.979c1.5,2.256,15.787,33.829,15.787,33.829L456.25,173.78l-12.778-29.318Z" transform="translate(18897.57 2784.57)" fill="#ffbcc6"/>
    <path id="Caminho_919" data-name="Caminho 919" d="M426.235,225.052l18.821-11.582,14.283-56.379-31.331,29.184Z" transform="translate(18895.986 2813.286)" fill="url(#linear-gradient)"/>
    <path id="Caminho_920" data-name="Caminho 920" d="M434.05,153.187" transform="translate(18913.756 2804.409)" fill="#fff"/>
    <path id="Caminho_921" data-name="Caminho 921" d="M525.522,150.29s-23.032,11.74-30.549,29.029-34.579,39.09-34.579,39.09l-61.644,12.781L398,240.96l64.489-.173s39.25-36.661,48.27-40.419S534.266,157.342,525.522,150.29Z" transform="translate(18831.785 2797.822)" fill="#9092ee"/>
    <path id="Caminho_922" data-name="Caminho 922" d="M417.538,153.067a36.13,36.13,0,0,0,18.887,16.982,10.853,10.853,0,0,1,5.752-7.7c4.217-1.879,9.507,1.856,9.979,6.45s-3.032,8.974-7.392,10.5c-.537,4.947,2.468,9.753,6.273,12.961s8.391,5.336,12.483,8.172c15.279,10.578,30.309,24.613,27.239,13.881-1.948-6.793-7.183-50.211-12.915-63.952a33.565,33.565,0,0,0-30.735-20.138C434.107,130.428,422.161,140.911,417.538,153.067Z" transform="translate(18876.211 2752.18)" fill="#37354c"/>
    <path id="Caminho_923" data-name="Caminho 923" d="M420.705,256.49h16.54l21.2-21.519-7.759-9.193s.576,11.491-5.169,14.654-13.5,4.02-13.5,4.02l-5.746,4.024S418.875,255.027,420.705,256.49Z" transform="translate(18882.75 2969.472)" fill="#37354c"/>
    <path id="Caminho_924" data-name="Caminho 924" d="M306.439,196.355S268.855,239.2,263.59,248.976,238.031,301.6,238.031,301.6l18.042,21.8h16.54s-3.758-6.764-9.023-8.267-14.356-16.412-14.356-16.412l72.241-72.294-.753-26.309Z" transform="translate(18468.035 2902.568)" fill="#d98e9d"/>
    <path id="Caminho_925" data-name="Caminho 925" d="M241.358,269.741l12.14,11.586,46.9-40.282s7.726-37.522,6.07-38.072-16.553-4.413-16.553-4.413-8.83,3.31-9.38,4.963-24.511,40.439-24.511,40.439Z" transform="translate(18475.6 2907.582)" fill="#444bcc"/>
    <g id="Grupo_665" data-name="Grupo 665" transform="translate(18618.881 2969.181)">
      <path id="Caminho_926" data-name="Caminho 926" d="M222.531,303.207c.026,0,.052.007.082.007a13.072,13.072,0,0,1,12.748-10.264h16.923V263.9h2.58v-62.3h1.706V201.1H259.1v.514h4.02v62.3h2.063V292.95h15.125a13.076,13.076,0,0,1,12.762,10.316,5.717,5.717,0,1,1-1.784.069,11.321,11.321,0,0,0-10.977-8.636H259.866v8.6a5.814,5.814,0,1,1-1.748,0v-8.6H235.361a11.32,11.32,0,0,0-11.026,8.823,5.741,5.741,0,1,1-1.8-.314Z" transform="translate(-199.305 -55.835)" fill="#524e64"/>
      <rect id="Retângulo_1231" data-name="Retângulo 1231" width="35.138" height="137.025" rx="4.749" transform="matrix(0.993, -0.115, 0.115, 0.993, 0, 4.025)" fill="#524e64"/>
      <path id="Caminho_927" data-name="Caminho 927" d="M332.391,197.518H229.9a13.091,13.091,0,0,0,0,26.181h102.5a13.091,13.091,0,0,0,0-26.181Z" transform="translate(-199.107 -63.969)" fill="#524e64"/>
    </g>
    <path id="Caminho_928" data-name="Caminho 928" d="M245.638,140.71c-.651-3.529-4.7-5.837-8.2-5.058a8.943,8.943,0,0,0-6.512,7.7,12.606,12.606,0,0,0,3.562,9.8c3.087,3.316,8.712,5.045,12.084,2.02a8.2,8.2,0,0,0,2.3-6.836,24.343,24.343,0,0,0-2.148-7.134" transform="translate(18451.717 2764.193)" fill="#a0616b"/>
    <path id="Caminho_929" data-name="Caminho 929" d="M267.972,204.4l-7.978,22.141a32.734,32.734,0,0,0-1.8,8.122l-7.134,78.969a6.525,6.525,0,0,0,6.24,7.52l29.429-.743s6-4.23-2.586-5.746-23.847-8.044-23.847-8.044l34.038-103.883Z" transform="translate(18497.482 2917.075)" fill="#ffbcc6"/>
    <path id="Caminho_930" data-name="Caminho 930" d="M227.2,188.986,228,216.9a11.908,11.908,0,0,0,10.987,11.537l82.02,6.348-9.272,37.771L306.66,333l11.586,3.863,34.212-100.429.553-18.759-80.563-18.763-5.516-14.346Z" transform="translate(18443.406 2875.77)" fill="#717bff"/>
    <path id="Caminho_931" data-name="Caminho 931" d="M225.507,272.783H283.8l-3.758-82.168c.753-21.8-21.722-37.27-32.8-40.3h0C239.13,148.087,225.507,272.783,225.507,272.783Z" transform="translate(18439.557 2797.801)" fill="#b2aed6"/>
    <path id="Caminho_932" data-name="Caminho 932" d="M231.742,167.692l-.707-2.865A28.2,28.2,0,1,1,285.79,151.29l2.773,11.22a10.513,10.513,0,0,1,.3,2.256,28.647,28.647,0,1,1-57.119,2.927Z" transform="translate(18450.254 2751.364)" fill="#ffbcc6"/>
    <path id="Caminho_933" data-name="Caminho 933" d="M232.145,150.29s32.051,17,38.065,25.271,32.379,37.3,32.379,37.3,7.389,3.814,23.176,6.07a320.285,320.285,0,0,1,32,6.623l-1.1,7.173s-28.686-1.738-53.521-5.52c-22.01-3.349-30.676-19.319-33.685-21.572s-35.332-33.076-35.332-33.076Z" transform="translate(18454.65 2797.822)" fill="#524f63"/>
    <path id="Caminho_934" data-name="Caminho 934" d="M268.941,181.5a9.879,9.879,0,1,1,10.454,9.268A9.882,9.882,0,0,1,268.941,181.5Z" transform="translate(18538.281 2844.969)" fill="#d98e9d"/>
    <path id="Caminho_935" data-name="Caminho 935" d="M270.163,183.146a9.88,9.88,0,1,1,10.457,9.268A9.882,9.882,0,0,1,270.163,183.146Z" transform="translate(18541.057 2848.714)" fill="#ffbcc6"/>
    <path id="Caminho_936" data-name="Caminho 936" d="M283.795,241.649s8.9,2.01,10.342,4.024-.864,4.308-.864,4.308L257.813,249l-7.058-1.028,1.722-13.5s2.013,5.746,7.471,6.034S283.795,241.649,283.795,241.649Z" transform="translate(18496.967 2989.227)" fill="#37354c"/>
    <path id="Caminho_937" data-name="Caminho 937" d="M255.674,147.646c-.917,2.55-7.2,36.628-7.2,36.628l-16.022-8.427,5.366-31.527Z" transform="translate(18455.342 2784.247)" fill="#ffbcc6"/>
    <path id="Caminho_938" data-name="Caminho 938" d="M265.854,225.052l-18.82-11.582L232.75,157.091l31.331,29.184Z" transform="translate(18456.027 2813.286)" fill="url(#linear-gradient-2)"/>
    <path id="Caminho_939" data-name="Caminho 939" d="M235.046,153.187" transform="translate(18461.248 2804.409)" fill="#fff"/>
    <path id="Caminho_940" data-name="Caminho 940" d="M232.1,156.081s1.719-8.021,2.292-7.638,20.436,14.13,20.436,14.13l4.583,15.469s-15.852.573-16.425,0S232.1,156.081,232.1,156.081Z" transform="translate(18454.541 2793.592)" fill="#fff"/>
    <path id="Caminho_941" data-name="Caminho 941" d="M235.537,150.29s23.032,11.74,30.548,29.029,34.579,39.09,34.579,39.09l61.64,12.781.753,9.769-64.489-.173S259.4,203.913,250.3,200.367C228.695,191.957,226.789,157.342,235.537,150.29Z" transform="translate(18451.258 2797.822)" fill="#b2aed6"/>
    <path id="Caminho_942" data-name="Caminho 942" d="M287.747,144.723a36.129,36.129,0,0,1-14.258,21.018,10.856,10.856,0,0,0-7.432-6.093c-4.544-.809-8.787,4.086-8.142,8.656s5.1,7.988,9.7,8.417c1.709,4.675-8.1,12.408-12.974,13.41-20.75,4.259-28.348-18.848-26.083-33.564a33.571,33.571,0,0,1,25-26.924C266.228,126.723,280.342,134.033,287.747,144.723Z" transform="translate(18445.613 2749.403)" fill="#f78834"/>
    <path id="Caminho_943" data-name="Caminho 943" d="M274.81,256.49H258.27l-21.2-21.519,7.756-9.193s-.573,11.491,5.173,14.654,13.5,4.02,13.5,4.02l5.746,4.024S276.64,255.027,274.81,256.49Z" transform="translate(18465.838 2969.472)" fill="#37354c"/>
    <ellipse id="Elipse_58" data-name="Elipse 58" cx="22.857" cy="22.857" rx="22.857" ry="22.857" transform="translate(18656.521 2862.651)" fill="#df7c30"/>
    <path id="Caminho_944" data-name="Caminho 944" d="M379.816,152.837l12.053,5.458,5.59-5.592,2.519,12.142-8.109-2.807-11.852,3.743Z" transform="translate(18790.436 2803.307)" fill="#fff"/>
    <path id="Caminho_946" data-name="Caminho 946" d="M428.142,217.943l-28.27,20.923,15.351,82.2H403.49L370.48,236.329a10.789,10.789,0,0,1,4.872-11.639l40.275-36.72Z" transform="translate(18768.568 2883.504)" fill="#9092ec"/>
    <path id="Caminho_947" data-name="Caminho 947" d="M434.623,222.68l-50.83,6.718,22.436,89.586H394.5l-40.1-92.127a10.791,10.791,0,0,1,4.875-11.635l47.363-29.334Z" transform="translate(18732.002 2878.767)" fill="#444bcc"/>
    <path id="Caminho_948" data-name="Caminho 948" d="M397.35,229.428l1.614,14.968s5.235,16.687-.74,17.293S375.1,263.244,378.5,258.4s6.024-18.442,6.024-18.442l2.374-11.688Z" transform="translate(18786.443 2975.143)" fill="#37354c"/>
    <path id="Caminho_949" data-name="Caminho 949" d="M392.675,226.542l1.44,16.985s-23.788,7.432-29.766,8.037-6.505-2.1-3.1-6.941,21.365-11.5,21.365-11.5l3.186-6.577Z" transform="translate(18743.439 2971.209)" fill="#37354c"/>
    <path id="Caminho_950" data-name="Caminho 950" d="M441.526,188.9v31.881a20.7,20.7,0,0,1-20.7,20.7H381.755l-12.706-53.128,51.472-8.938Z" transform="translate(18765.953 2864.046)" fill="#9092ec"/>
    <rect id="Retângulo_1232" data-name="Retângulo 1232" width="493.959" height="55.441" transform="translate(18783.404 3044.062)" fill="#3a85f7"/>
    <rect id="Retângulo_1233" data-name="Retângulo 1233" width="5.89" height="206.624" transform="translate(18783.906 3044.497)" fill="#4d4e64"/>
    <rect id="Retângulo_1234" data-name="Retângulo 1234" width="5.889" height="206.624" transform="translate(19275.43 3044.497)" fill="#4d4e64"/>
    <path id="Caminho_952" data-name="Caminho 952" d="M759.838,212.086,261.524,179.707H759.838Z" transform="translate(18521.455 2864.712)" fill="url(#linear-gradient-3)"/>
    <rect id="Retângulo_1235" data-name="Retângulo 1235" width="524.504" height="9.423" transform="translate(18769.771 3038.608)" fill="#717171"/>
    <path id="Caminho_953" data-name="Caminho 953" d="M401.843,130.337c-15.3,0-27.828,9.321-28.172,24.538,1.359,1.575,2.475,3.182,2.256,5.189,4.77-2.046,9.648-4.492,12.667-8.715a12.661,12.661,0,0,0,1.09-12.791,40.087,40.087,0,0,0,13.966,4.521c6.823.848,14.981.724,18.985-4.862a18.887,18.887,0,0,0,6.315,17.43,10.189,10.189,0,0,0,1.048-1.08C429.491,139.491,417.037,130.337,401.843,130.337Z" transform="translate(18776.463 2752.451)" fill="#37354c"/>
    <g id="Grupo_676" data-name="Grupo 676" transform="matrix(0.995, -0.105, 0.105, 0.995, 19054.941, 2985.945)">
      <path id="Caminho_1026" data-name="Caminho 1026" d="M.5,21.174,0,20.826l3.787-5.459L5.758,17.44,10.1,9.7l2.438,3.5,6.4-9.648,2.857,3.6L27.234,0l.487.37L21.806,8.146,18.984,4.593l-6.43,9.7-2.4-3.438L5.884,18.461l-2.023-2.13Z" fill="#444bcc"/>
    </g>
    <g id="Grupo_677" data-name="Grupo 677" transform="matrix(0.995, -0.105, 0.105, 0.995, 19054.258, 2980.071)">
      <path id="Caminho_1027" data-name="Caminho 1027" d="M35.207,29.215H0V28.6H34.6V0h.611Z" fill="#37354c"/>
    </g>
    <g id="Grupo_678" data-name="Grupo 678" transform="matrix(0.995, -0.105, 0.105, 0.995, 19056.895, 2979.904)">
      <path id="Caminho_1028" data-name="Caminho 1028" d="M.6,26.251l-.212-.078H0c0-.11,0-.4,8.453-14.35l.268-.442,6.413,11.172L21.44,0l6.492,24.1-.589.16L21.428,2.307l-6.1,21.812L8.707,12.582C5.45,17.963.785,25.739.6,26.251Z" fill="#d98e9d"/>
    </g>
    <g id="Grupo_671" data-name="Grupo 671" transform="translate(19382.438 3035.818)">
      <path id="Caminho_954" data-name="Caminho 954" d="M178.566,176.738s-14.657,64.738,8.551,108.712l23.208,43.975S216.432,219.488,178.566,176.738Z" transform="translate(-174 -160.856)" fill="#1fdbdb"/>
      <path id="Caminho_955" data-name="Caminho 955" d="M176.311,247.931c1.408,7.939,3.215,15.947,7.144,22.989s10.277,13.086,18.114,14.985a41.8,41.8,0,0,0,10.909.75c4.007-.108,8.2-.363,11.655-2.4,4.5-2.652,6.865-7.772,8.7-12.67a148.013,148.013,0,0,0,7.016-25.559c.9-5.029,1.486-10.476-.861-15.014-3.179-6.142-10.627-8.614-17.453-9.73-11.347-1.85-26.97-2.8-37.839,1.824C174.2,227.139,174.772,239.265,176.311,247.931Z" transform="translate(-170.753 -63.039)" fill="#fff"/>
      <path id="Caminho_956" data-name="Caminho 956" d="M196.244,229.357c9,.527,18.759-.855,24.426-3.906,1.136-.612,2.144-1.395,1.607-2.144-.632-.881-3.032-1.244-5.12-1.46-10.823-1.116-22.809-1.624-33.4.173C168.233,224.653,188.007,228.876,196.244,229.357Z" transform="translate(-164.954 -60.579)" fill="#524e64"/>
      <path id="Caminho_957" data-name="Caminho 957" d="M183.2,171.887s-7.33,123.373,9.773,168.568C192.968,340.456,203.962,230.519,183.2,171.887Z" transform="translate(-156.643 -171.887)" fill="#2888a6"/>
      <path id="Caminho_958" data-name="Caminho 958" d="M187.995,320.654h3.968c5.837-24.423,23.3-103.533,14.071-140.456,0,0-29.314,103.828-21.987,127.036C185.837,313.32,187.1,317.612,187.995,320.654Z" transform="translate(-153.83 -152.989)" fill="#1fdbdb"/>
    </g>
    <path id="Caminho_966" data-name="Caminho 966" d="M798.269,341.632a1102.966,1102.966,0,0,0-481.651,0,17.241,17.241,0,0,1-20.582-12.557L246.116,121.1c-2.189-9.062,5.146-18.624,16.474-21.12a1350.6,1350.6,0,0,1,589.786,0c11.289,2.534,18.662,12.1,16.473,21.12l-49.92,207.974a17.242,17.242,0,0,1-20.582,12.557" transform="translate(18510.871 2493.444)" fill="#ffdea9"/>
    <path id="Caminho_967" data-name="Caminho 967" d="M294.311,303.789,251.572,113.056a10.522,10.522,0,0,1,9.178-11.52,1333.822,1333.822,0,0,1,560.448,0,10.522,10.522,0,0,1,9.177,11.52l-42.7,190.733a9.6,9.6,0,0,1-11.52,7.1,1119.588,1119.588,0,0,0-470.438,0,9.6,9.6,0,0,1-11.52-7.1" transform="translate(18527.303 2505.866)" fill="#fff"/>
    <ellipse id="Elipse_59" data-name="Elipse 59" cx="5.76" cy="5.568" rx="5.76" ry="5.568" transform="translate(18814.119 2618.148) rotate(-10.87)" fill="#f7a944"/>
    <ellipse id="Elipse_60" data-name="Elipse 60" cx="5.76" cy="5.568" rx="5.76" ry="5.568" transform="translate(18835.482 2614.156) rotate(-9.92)" fill="#f7a944"/>
    <ellipse id="Elipse_61" data-name="Elipse 61" cx="5.76" cy="5.568" rx="5.76" ry="5.568" transform="matrix(0.988, -0.156, 0.156, 0.988, 18856.928, 2610.56)" fill="#f7a944"/>
    <rect id="Retângulo_1239" data-name="Retângulo 1239" width="42.393" height="123.305" transform="translate(19103.611 2629.084)" fill="#3a85f7"/>
    <rect id="Retângulo_1240" data-name="Retângulo 1240" width="42.393" height="29.211" transform="translate(19162.336 2723.179)" fill="#3a85f7" opacity="0.7"/>
    <rect id="Retângulo_1241" data-name="Retângulo 1241" width="42.393" height="50.93" transform="translate(19044.877 2701.459)" fill="#3a85f7" opacity="0.7"/>
    <rect id="Retângulo_1242" data-name="Retângulo 1242" width="42.393" height="82.352" transform="translate(18986.404 2670.038)" fill="#3a85f7" opacity="0.7"/>
    <rect id="Retângulo_1250" data-name="Retângulo 1250" width="42.393" height="25.352" transform="translate(18927.404 2727.038)" fill="#3a85f7"/>
    <path id="Caminho_1025" data-name="Caminho 1025" d="M251.121,266.433H565.959a2.691,2.691,0,0,0,2.691-2.691h0a2.691,2.691,0,0,0-2.691-2.691H251.121a2.691,2.691,0,0,0-2.691,2.691h0a2.691,2.691,0,0,0,2.691,2.691Z" transform="translate(18647.088 2491.322)" fill="#e2e2e2"/>
    <g id="Grupo_675" data-name="Grupo 675" transform="matrix(0.848, 0.53, -0.53, 0.848, 4322.755, -9792.203)">
      <path id="Caminho_962" data-name="Caminho 962" d="M200.337,180.615a33.5,33.5,0,0,1,23.982-45.145l3.569,16.3a16.833,16.833,0,0,0-13.23,16.435,16.652,16.652,0,0,0,1.193,6.228Z" transform="translate(19053.025 2473.247)" fill="#aac2e8"/>
      <path id="Caminho_963" data-name="Caminho 963" d="M252.709,193.557a33.45,33.45,0,0,1-23.7,9.82,33.863,33.863,0,0,1-4.544-.307,33.4,33.4,0,0,1-19.166-9.514c-.261-.261-.511-.534-.762-.807l12.184-11.366a16.822,16.822,0,1,0,19.72-26.585l7.388-14.969a33.177,33.177,0,0,1,8.877,6.354,33.529,33.529,0,0,1,0,47.373Z" transform="translate(19053.926 2473.843)" fill="#195ec7"/>
      <path id="Caminho_964" data-name="Caminho 964" d="M241.752,140.224l-7.388,14.992a16.64,16.64,0,0,0-7.433-1.739,16.833,16.833,0,0,0-3.592.386l-3.569-16.3c.864-.193,1.739-.352,2.614-.466a32.517,32.517,0,0,1,4.546-.318,33.337,33.337,0,0,1,9.428,1.362A32.607,32.607,0,0,1,241.752,140.224Z" transform="translate(19056.006 2473.426)" fill="#3279e3"/>
      <path id="Caminho_965" data-name="Caminho 965" d="M205.352,191.132a33.028,33.028,0,0,1-6.672-10.479l15.515-6.183a16.639,16.639,0,0,0,3.342,5.262Z" transform="translate(19053.125 2478.574)" fill="#3a85f7"/>
    </g>
    <rect id="Retângulo_1251" data-name="Retângulo 1251" width="44.779" height="4.165" transform="translate(19044.689 2938.682) rotate(-3.881)" fill="#e7e7e8"/>
    <rect id="Retângulo_1252" data-name="Retângulo 1252" width="35.407" height="4.165" transform="translate(19045.412 2949.331) rotate(-3.88)" fill="#e7e7e8"/>
    <rect id="Retângulo_1253" data-name="Retângulo 1253" width="44.779" height="4.165" transform="translate(19046.133 2959.979) rotate(-3.881)" fill="#e7e7e8"/>
    <rect id="Retângulo_1254" data-name="Retângulo 1254" width="35.407" height="4.165" transform="translate(19046.857 2970.629) rotate(-3.88)" fill="#e7e7e8"/>
    <path id="Caminho_945" data-name="Caminho 945" d="M477.823,151.529l-38.052,49.314-84.345-8.185-1.349,11.678,88.211,22.94,12.932-7.543a90.18,90.18,0,0,0,38.422-44.187c1.323-3.307,2.108-5.756,1.886-6.482a25.271,25.271,0,0,0-12.951-15.187Z" transform="translate(18731.908 2800.639)" fill="#f78834"/>
    <path id="Caminho_951" data-name="Caminho 951" d="M369.145,172.661a9.879,9.879,0,1,0-10.457,9.268A9.879,9.879,0,0,0,369.145,172.661Z" transform="translate(18721.283 2824.873)" fill="#a0616b"/>
    <g id="Grupo_679" data-name="Grupo 679" transform="translate(-220.6 2254.44) rotate(-7)">
      <path id="Caminho_1029" data-name="Caminho 1029" d="M340.587,83.771l-1.737,43.318H337.77q.8-21.659,1.586-43.329h1.263" transform="translate(18585.404 2633.593)" fill="#3a85f7"/>
      <path id="Caminho_1030" data-name="Caminho 1030" d="M291.973,112.14l1.651,14.5-1.079.13L290.84,112.28l1.155-.13" transform="translate(18581.688 2635.84)" fill="#3a85f7"/>
      <path id="Caminho_1031" data-name="Caminho 1031" d="M315.09,95.57l1.079,30.541H315.09L313.86,95.57Z" transform="translate(18583.51 2634.528)" fill="#3a85f7"/>
      <path id="Caminho_1032" data-name="Caminho 1032" d="M365.568,93.53l-4.079,34.717-1.079-.13,3.961-34.728Z" transform="translate(18587.195 2634.356)" fill="#3a85f7"/>
      <path id="Caminho_1033" data-name="Caminho 1033" d="M395.651,121.4l-.065.313.065-.313h0M264.91,94.992a10.587,10.587,0,0,0-2.04.205l.205,1.079a9.206,9.206,0,0,1,1.77-.173c5.493,0,9.432,5.212,13.371,10.716,4.133,5.774,8.169,11.752,14.224,11.752a9.531,9.531,0,0,0,1.079-.065l-.129-1.079a8.386,8.386,0,0,1-.96.054c-5.4,0-9.108-5.5-13.22-11.277-3.917-5.525-8.191-11.2-14.331-11.2m107.194-4.22c-6.583,0-10.565,6.259-14.18,12.324-3.734,6.238-7.036,12.151-12.7,12.3v1.079c6.378-.108,10.026-6.594,13.8-12.864,3.637-6.054,7.3-11.763,13.155-11.763a9.415,9.415,0,0,1,1.079.065c6.475.766,8.892,7.554,11.159,14.666,2.158,6.756,4.176,13.673,9.939,15.54l.205-1.079c-5.061-1.737-6.863-8.051-9-14.731-2.255-7.155-4.867-14.6-12.195-15.475a10.89,10.89,0,0,0-1.241-.076m-53.7-2.072h-.421c-7.36.3-10.522,7.554-13.317,14.493-2.633,6.475-4.921,12.669-10.1,14.029l.119,1.079c5.9-1.392,8.428-8.159,11.1-14.731,2.817-6.993,5.72-13.468,12.27-13.781h.367c6.292,0,9.626,6.205,12.95,12.767s6.41,13.263,12.745,13.878v-1.079c-5.612-.6-8.45-6.745-11.687-13.241S325.516,88.7,318.393,88.7" transform="translate(18579.473 2633.984)" fill="#717171"/>
    </g>
  </g>
</svg>
