<svg xmlns="http://www.w3.org/2000/svg" width="132.225" height="133.4" viewBox="0 0 132.225 133.4">
  <g id="Grupo_524" data-name="Grupo 524" transform="translate(-315.771 -1496.369)">
    <path id="Caminho_560" data-name="Caminho 560" d="M130.157,26.589a2.406,2.406,0,0,0-.2-.951,2.753,2.753,0,0,0-.1-.637l-9.05-19.739A9.056,9.056,0,0,0,112.6,0H20.341a9.059,9.059,0,0,0-8.209,5.26L3.209,24.639l-.119.316a2.759,2.759,0,0,0-.083.918,2.8,2.8,0,0,0-.226,1.1V41.727a17.435,17.435,0,0,0,2.2,8.486V66.357a8.239,8.239,0,0,0-2.042,4.019,8.666,8.666,0,0,0,.226,4.017A2.832,2.832,0,0,1,2.7,76.727a12.7,12.7,0,0,0-1.16,11.8,7.989,7.989,0,0,0,.9,1.555A2.937,2.937,0,0,1,2.928,92.5,8.857,8.857,0,0,0,2.7,93.879a18.172,18.172,0,0,0,.549,5.411c.34,1.614.856,4.056,2.666,5.611a5.67,5.67,0,0,0,3.461,1.337V114.2H2.937l-1.113.046L.475,115.9l2.644,15.865H127.961V50.213a17.441,17.441,0,0,0,2.2-8.486Zm-6.064,21.544c-.072.132-.156.257-.233.384a13.585,13.585,0,0,1-.953,1.379c-.007.007-.011.015-.018.022a13.237,13.237,0,0,1-1.085,1.208c-.081.079-.169.152-.253.228-.13.121-.266.228-.4.343a2.187,2.187,0,0,0-4.173.925,2.156,2.156,0,0,0,.492,1.329c-.121.048-.244.09-.365.134-.283.1-.567.2-.856.285-.2.059-.406.108-.611.158-.321.077-.646.138-.975.191-.173.029-.347.059-.523.079a12.162,12.162,0,0,1-1.555.105,13.1,13.1,0,0,1-4.884-.949,2.156,2.156,0,0,0,.492-1.329,2.189,2.189,0,0,0-4.181-.914,13.264,13.264,0,0,1-3.171-4.041A2.151,2.151,0,0,0,99.6,43.881a13.136,13.136,0,0,1-.191-2.152v-6.67a2.2,2.2,0,0,0,0-4.392V28.55h26.354v2.115a2.2,2.2,0,1,0,0,4.392v6.67a13.094,13.094,0,0,1-.191,2.152,2.151,2.151,0,0,0-1.241,3.791c-.055.105-.1.217-.156.323Zm-70.8,2.3a2.2,2.2,0,0,0-2.2,2.2,2.169,2.169,0,0,0,1.867,2.13A13.379,13.379,0,0,1,51.1,54.9,13.19,13.19,0,0,1,37.919,41.727V28.55H64.273V41.727A13.186,13.186,0,0,1,54.428,54.46a2.16,2.16,0,0,0,1.061-1.834A2.194,2.194,0,0,0,53.292,50.43ZM18.8,54.8c-.176-.022-.349-.053-.523-.079-.329-.053-.654-.114-.975-.191-.2-.048-.408-.1-.611-.158-.29-.083-.575-.184-.856-.288-.2-.072-.4-.134-.589-.215a13.414,13.414,0,0,1-1.212-.589c-.2-.11-.391-.235-.584-.356-.237-.147-.472-.3-.7-.461-.173-.123-.343-.25-.51-.382-.292-.231-.575-.472-.848-.729-.081-.077-.169-.147-.248-.226a13.6,13.6,0,0,1-1.087-1.208c-.007-.007-.011-.015-.018-.022a13.586,13.586,0,0,1-.953-1.379c-.077-.127-.16-.253-.233-.384l-.083-.141a13.063,13.063,0,0,1-1.594-6.268V28.55H33.527V41.727A13.19,13.19,0,0,1,20.35,54.9,12.982,12.982,0,0,1,18.8,54.8ZM68.665,28.55H95.019V41.727a13.177,13.177,0,1,1-26.354,0V28.55ZM112.6,4.392a4.659,4.659,0,0,1,4.221,2.7l7.845,17.062H99.049l-1.8-9.883-1.8-9.883Zm-43.932,0h3.986a2.164,2.164,0,0,0-1.79,2.115,2.2,2.2,0,1,0,4.392,0,2.166,2.166,0,0,0-1.79-2.115H85.83a2.164,2.164,0,0,0-1.79,2.115,2.2,2.2,0,1,0,4.392,0,2.166,2.166,0,0,0-1.79-2.115h4.351L92.2,11.025a2.169,2.169,0,0,0-1.568,2.069,2.2,2.2,0,0,0,2.2,2.2c.051,0,.092-.026.143-.029l1.614,8.9H68.665Zm-26.716,0H64.273V24.158H38.356l1.8-9.883ZM12.541,14.872a2.142,2.142,0,0,0,1.221.419,2.2,2.2,0,0,0,2.2-2.2,2.164,2.164,0,0,0-1.641-2.084l1.805-3.918a4.616,4.616,0,0,1,3.314-2.569,2.191,2.191,0,1,0,3.11,1.983,2.166,2.166,0,0,0-1.79-2.115H33.123a2.164,2.164,0,0,0-1.79,2.115,2.2,2.2,0,1,0,4.392,0,2.166,2.166,0,0,0-1.79-2.115h3.551l-1.8,9.883L35,18.074a2.174,2.174,0,0,0-1.469-.586,2.2,2.2,0,1,0,.806,4.23l-.446,2.44H8.265Zm-5,83.508a14.485,14.485,0,0,1-.472-4.1,4.531,4.531,0,0,1,.121-.714,7.355,7.355,0,0,0-1.221-6.105,3.784,3.784,0,0,1-.4-.7,8.28,8.28,0,0,1,.777-7.572,7.163,7.163,0,0,0,1.028-6.039,4.345,4.345,0,0,1-.116-1.972,3.833,3.833,0,0,1,1.151-2.1l.145-.116a3.008,3.008,0,0,1,.551-.365l1.99-1.625a1.724,1.724,0,0,1,.556-.362c.048-.022.1-.04.145-.057a3.5,3.5,0,0,1,1.219-.171c.224.007.441.024.582.042a5.5,5.5,0,0,1,2.132.76l.483.4a5.234,5.234,0,0,1,.578.553,3.705,3.705,0,0,1,.433.6,3.613,3.613,0,0,1,.279,2.313,6.7,6.7,0,0,0,1.355,5.616,2.714,2.714,0,0,1,.54,1.153,4.369,4.369,0,0,1,.081.865,9.1,9.1,0,0,1-.753,3.259v0a12.376,12.376,0,0,1-1.438,2.717,7.083,7.083,0,0,0-1.135,5.361,8.41,8.41,0,0,0,.571,1.924,6.032,6.032,0,0,1,.224,3.968,6.893,6.893,0,0,1-.391,1,7.852,7.852,0,0,1-1.2,1.794c-.022.024-.044.044-.066.068a9.9,9.9,0,0,1-.729.727,12.051,12.051,0,0,1-2.442,1.68l-.029.013a7.531,7.531,0,0,1-1.065.437,2.439,2.439,0,0,1-2.244-.059C8.089,100.981,7.76,99.417,7.54,98.381Zm8.754,29H6.837l-1.463-8.785H17.756ZM13.762,114.2v-8.938c.123-.057.244-.119.365-.18a15.976,15.976,0,0,0,3.283-2.247l0,0c.02-.018.033-.035.053-.053a13.943,13.943,0,0,0,1.179-1.184c.055-.064.1-.132.156-.2.277-.329.538-.668.775-1.015.108-.156.2-.314.3-.472.178-.285.34-.58.492-.876.079-.156.163-.312.235-.472a11.3,11.3,0,0,0,.534-1.388,9.722,9.722,0,0,0,.354-1.735,10.66,10.66,0,0,0,.048-1.8,10.229,10.229,0,0,0-.8-3.455,3.092,3.092,0,0,1,.088-2.958c.215-.3.406-.646.606-.977a17.517,17.517,0,0,0,1.359-2.7,11.6,11.6,0,0,0,.9-6.608,7.012,7.012,0,0,0-1.46-3.086,2.356,2.356,0,0,1-.448-1.9,7.917,7.917,0,0,0,.152-1.748c0-.152-.009-.3-.02-.45a7.976,7.976,0,0,0-.239-1.518c-.015-.055-.011-.114-.026-.169h49.2V114.2H13.762Zm70.277,13.177v-59.3h30.746v59.3Zm39.531,0h-4.392V63.688H79.646v63.688h-58.9l1.465-8.785H75.256v-54.9H18.4a9.828,9.828,0,0,0-4.188-1.621,9.268,9.268,0,0,0-1.658-.075c-.143,0-.281.02-.422.031a7.607,7.607,0,0,0-1.19.193c-.112.029-.226.048-.336.079a6.47,6.47,0,0,0-1.234.5V55.446a17.314,17.314,0,0,0,4.144,2.464l.018.007q.728.306,1.487.545l.257.079c.428.13.863.239,1.3.336.132.029.264.059.4.086q.619.119,1.256.193c.145.018.288.042.433.055.558.053,1.12.086,1.687.086a17.531,17.531,0,0,0,2.187-.152c.206-.026.411-.061.615-.094.542-.088,1.074-.2,1.6-.336.182-.046.365-.088.545-.141a17.369,17.369,0,0,0,1.972-.7c.1-.042.189-.094.285-.138a17.668,17.668,0,0,0,1.583-.817c.178-.1.349-.209.523-.318.466-.292.914-.6,1.348-.938.121-.092.248-.178.367-.275A17.414,17.414,0,0,0,32.894,54c.108-.11.206-.228.312-.343q.557-.6,1.056-1.245c.125-.163.248-.325.367-.492a17.4,17.4,0,0,0,.96-1.491c.042-.072.094-.138.136-.211.042.072.094.138.136.211.294.514.617,1.01.96,1.491.119.167.242.329.367.492q.5.649,1.056,1.245c.105.114.2.233.312.343a17.414,17.414,0,0,0,1.52,1.381c.119.1.246.182.367.275.435.334.883.646,1.348.938.173.108.345.215.523.318a17.648,17.648,0,0,0,1.583.817c.1.044.189.1.285.138a17.219,17.219,0,0,0,1.972.7c.18.053.362.092.545.141.525.136,1.056.248,1.6.336.2.033.408.068.615.094a15.831,15.831,0,0,0,4.37,0c.206-.026.411-.061.615-.094.542-.088,1.074-.2,1.6-.336.182-.046.365-.088.545-.141a17.37,17.37,0,0,0,1.972-.7c.1-.042.189-.094.285-.138a17.668,17.668,0,0,0,1.583-.817c.178-.1.349-.209.523-.318.466-.292.914-.6,1.348-.938.121-.092.248-.178.367-.275A17.413,17.413,0,0,0,63.641,54c.108-.11.206-.228.312-.343q.557-.6,1.056-1.245c.125-.163.248-.325.367-.492a17.4,17.4,0,0,0,.96-1.491c.042-.072.094-.138.136-.211.042.072.094.138.136.211.294.514.617,1.01.96,1.491.119.167.242.329.367.492q.5.649,1.056,1.245c.105.114.2.233.312.343a17.414,17.414,0,0,0,1.52,1.381c.119.1.246.182.367.275.435.334.883.646,1.348.938.173.108.345.215.523.318a17.649,17.649,0,0,0,1.583.817c.1.044.189.1.285.138a17.219,17.219,0,0,0,1.972.7c.18.053.362.092.545.141.525.136,1.056.248,1.6.336.2.033.408.068.615.094a15.831,15.831,0,0,0,4.37,0c.206-.026.411-.061.615-.094.542-.088,1.074-.2,1.6-.336.182-.046.365-.088.545-.141a17.369,17.369,0,0,0,1.972-.7c.1-.042.189-.094.285-.138a17.668,17.668,0,0,0,1.583-.817c.178-.1.349-.209.523-.318.466-.292.914-.6,1.348-.938.121-.092.248-.178.367-.275A17.414,17.414,0,0,0,94.387,54c.108-.11.206-.228.312-.343q.557-.6,1.056-1.245c.125-.163.248-.325.367-.492a17.394,17.394,0,0,0,.96-1.491c.042-.072.094-.138.136-.211.042.072.094.138.136.211.294.514.617,1.01.96,1.491.119.167.242.329.367.492q.5.649,1.056,1.245c.105.114.2.233.312.343a17.413,17.413,0,0,0,1.52,1.381c.119.1.246.182.367.275.435.334.883.646,1.348.938.173.108.345.215.523.318a17.649,17.649,0,0,0,1.583.817c.1.044.189.1.285.138a17.219,17.219,0,0,0,1.972.7c.18.053.362.092.545.141.525.136,1.056.248,1.6.336.2.033.408.068.615.094a17.461,17.461,0,0,0,2.183.152c.569,0,1.129-.033,1.687-.086.145-.013.288-.037.433-.055.422-.051.841-.112,1.256-.193.134-.026.264-.057.4-.086q.662-.145,1.3-.336c.086-.026.171-.051.257-.079.505-.16,1-.34,1.487-.545l.018-.007a17.314,17.314,0,0,0,4.144-2.464Z" transform="translate(315.525 1498)" fill="#717171"/>
    <g id="store" transform="translate(318.272 1498.869)">
      <path id="Caminho_569" data-name="Caminho 569" d="M33.188,24.991H2.241a.647.647,0,0,1-.622-.825L10.846,4.119A7.075,7.075,0,0,1,17.276,0H37.732Z" transform="translate(-1.382 0)" fill="#fff" stroke="#707070" stroke-width="5"/>
      <path id="Caminho_570" data-name="Caminho 570" d="M61.306,24.991H29.5V0H56.763Z" transform="translate(34.112 0)" fill="#fff" stroke="#707070" stroke-width="5"/>
      <path id="Caminho_571" data-name="Caminho 571" d="M31.4,42.806h0A15.9,15.9,0,0,1,15.5,26.9V11H47.306V26.9A15.9,15.9,0,0,1,31.4,42.806Z" transform="translate(16.306 13.991)" fill="#fff" stroke="#707070" stroke-width="5"/>
      <path id="Caminho_572" data-name="Caminho 572" d="M59.4,42.806h0A15.9,15.9,0,0,1,43.5,26.9V11H75.063a.243.243,0,0,1,.243.243V26.9A15.9,15.9,0,0,1,59.4,42.806Z" transform="translate(51.919 13.991)" fill="#fff" stroke="#707070" stroke-width="5"/>
      <path id="Caminho_573" data-name="Caminho 573" d="M47.306,24.991H15.5L20.044,0H47.306Z" transform="translate(16.306 0)" fill="#fff" stroke="#707070" stroke-width="5"/>
      <path id="Caminho_574" data-name="Caminho 574" d="M77.043,24.991h-31L41.5,0H61.956a7.079,7.079,0,0,1,6.432,4.121L77.63,24.216A.609.609,0,0,1,77.043,24.991Z" transform="translate(49.375 0)" fill="#fff" stroke="#707070" stroke-width="5"/>
      <path id="Caminho_575" data-name="Caminho 575" d="M17.4,42.806h0A15.9,15.9,0,0,1,1.5,26.9V11.641A.64.64,0,0,1,2.141,11H33.306V26.9A15.9,15.9,0,0,1,17.4,42.806Z" transform="translate(-1.5 13.991)" fill="#fff" stroke="#707070" stroke-width="5"/>
      <path id="Caminho_576" data-name="Caminho 576" d="M45.4,42.806h0A15.9,15.9,0,0,1,29.5,26.9V11H61.306V26.9A15.9,15.9,0,0,1,45.4,42.806Z" transform="translate(34.112 13.991)" fill="#fff" stroke="#707070" stroke-width="5"/>
    </g>
  </g>
</svg>
