<svg xmlns="http://www.w3.org/2000/svg" width="251" height="53.642" viewBox="0 0 251 53.642"><g transform="translate(-3788 10080)"><g transform="translate(3794.911 -10080)"><path d="M278.089,7V51.059H227V0h43.325Z" transform="translate(-227)" fill="#fec52b" fill-rule="evenodd"/><path d="M296.725,79.377l-7.338,7.338-7.338-7.338,7.338-7.338Zm0-21.038-4.354,4.354,7.459,7.49,7.825-7.794L289.388,44.12,271.15,62.388l8.007,7.52,7.155-7.338-4.263-4.232,7.338-7.307Zm-7.49,7.185L279.1,75.632h-.122L265,62.388,289.388,38l24.388,24.388L300.257,76.241Zm2.771-7.185-2.618,2.618-2.618-2.618,2.618-2.618Zm0,21.038L289.388,82l-2.618-2.618,2.618-2.618Z" transform="translate(-263.843 -36.843)" fill="#fffbd6" fill-rule="evenodd"/></g><path d="M66.194-723.8v12.357a18.349,18.349,0,0,0,.529,5.088,6.441,6.441,0,0,0,4.625,4.229c1.123.3,1.85.363,4.956.363h4.989v-3.932H76.8c-2.973,0-3.965-.2-4.824-.958s-.925-.958-1.09-4.791V-723.8Zm17.841,22.037h4.692V-723.8H84.035Zm25.9-3.932H103.2a6.483,6.483,0,0,1-3.965-.991c-1.322-.958-2.015-3.238-2.015-6.476,0-2.28.4-4.031,1.123-4.923.958-1.189,2.511-1.784,4.692-1.784h6.905V-723.8h-7.467a14.447,14.447,0,0,0-5.584.991c-3.106,1.454-4.857,5.121-4.857,10.077,0,3.932,1.024,6.971,2.907,8.788,1.718,1.652,3.535,2.181,7.335,2.181h7.665Zm3.337,3.932h4.692V-723.8h-4.692Zm14.141-18.105v18.105h4.692v-18.105h7.269V-723.8h-19v3.932Zm9.515,18.105h5.518l2.114-5.121h8.392l2.115,5.121h5.484L151.435-723.8h-5.385Zm11.828-16.751,3.139,7.7H145.62Zm18.634.595,9.02,16.156h5.749V-723.8H177.7v16.42l-8.788-16.42h-5.98v22.037h4.46Zm35.781-5.881h-7.929c-2.974,0-4.493.463-6.046,1.784-2.445,2.081-3.733,5.187-3.733,9.086,0,3.667,1.024,6.74,2.907,8.689,1.751,1.85,4,2.478,8.689,2.478h6.112v-3.932h-5.914c-4.493,0-6.145-1.289-6.476-5.055h12.39v-3.932h-12.39c.165-2.181.3-2.676.958-3.568.958-1.255,2.148-1.619,5.319-1.619h6.112Zm8.656,3.932v18.105h4.692v-18.105h7.269V-723.8h-19v3.932Z" transform="translate(3806.392 -9341.706)" fill="#fff"/><path d="M4.527-1.341h-2.3V-6.957H.639V0H4.527Z" transform="translate(3873.28 -10029.253)" fill="#fff"/><path d="M.639,0H2.223V-6.957H.639Z" transform="translate(3879.583 -10029.253)" fill="#fff"/><path d="M15.66-242.752a3.479,3.479,0,0,1-1.084.174c-1.209,0-1.983-.813-1.983-2.37,0-1.683.9-2.419,1.974-2.419a2.56,2.56,0,0,1,1.084.223l.31-1.383a3.432,3.432,0,0,0-1.49-.271,3.581,3.581,0,0,0-3.667,3.947c0,2.07,1.122,3.725,3.492,3.725a4.328,4.328,0,0,0,1.577-.252Z" transform="translate(3873.371 -9787.505)" fill="#fff"/><path d="M22.56-238.143h1.7v-7.478h-1.7Z" transform="translate(3868.853 -9790.586)" fill="#fff"/><path d="M10.192-245.621H5.084v1.49H6.777v5.988h1.7v-5.988h1.712Z" transform="translate(3890.09 -9790.586)" fill="#fff"/><path d="M8.262-245.621H6.1l-1.974,7.478H5.853l.406-1.741H7.981l.435,1.741h1.761Zm-1.8,4.45.339-1.5c.087-.426.213-1.113.31-1.567H7.13c.1.455.223,1.122.319,1.567l.329,1.5Z" transform="translate(3897.408 -9790.586)" fill="#fff"/><path d="M13.038-241.281l-.445,1.016c.58.058.832.2.832.416,0,.193-.174.261-.368.261a1.5,1.5,0,0,1-.609-.155l-.223.677a1.87,1.87,0,0,0,.919.213c.648,0,1.316-.252,1.316-1.016a.922.922,0,0,0-.784-.88l.193-.406a3.184,3.184,0,0,0,.435.029,4.308,4.308,0,0,0,1.567-.252l-.213-1.374a3.479,3.479,0,0,1-1.084.174c-1.2,0-1.983-.813-1.983-2.37,0-1.683.9-2.419,1.974-2.419a2.645,2.645,0,0,1,1.093.223l.31-1.383a3.5,3.5,0,0,0-1.49-.271h-.01a3.581,3.581,0,0,0-3.667,3.947,3.406,3.406,0,0,0,2.332,3.57Z" transform="translate(3898.55 -9787.505)" fill="#fff"/><path d="M13.967-306.418c-2,0-3.164,1.751-3.164,3.86,0,2.051,1.006,3.831,3.067,3.831,1.886,0,3.154-1.345,3.154-3.947C17.024-304.493,16.153-306.418,13.967-306.418Zm-.039,1.4c.871,0,1.306,1.093,1.306,2.4,0,1.461-.455,2.486-1.316,2.486s-1.335-1.025-1.325-2.457C12.593-303.874,13.019-305.015,13.928-305.015Zm.716-3.2c-.039.348-.106.455-.281.455a1.2,1.2,0,0,1-.455-.2,1.111,1.111,0,0,0-.658-.213c-.5,0-.842.464-.813,1.4H13.2c.019-.3.126-.445.252-.445a.975.975,0,0,1,.426.184,1.163,1.163,0,0,0,.668.2c.561,0,.88-.368.851-1.383Z" transform="translate(3905.431 -9729.895)" fill="#fff"/><path d="M26.807-239.565H24.263v-1.741h2.273V-242.7H24.263v-1.5h2.4v-1.422h-4.1v7.478h4.247Z" transform="translate(3902.1 -9790.586)" fill="#fff"/><path d="M16.476-248.469a3.762,3.762,0,0,0-1.625-.329c-1.732,0-2.7,1-2.7,2.264,0,.89.609,1.625,1.79,2.167.774.348,1.113.6,1.113,1.055s-.348.755-1.064.755a3.831,3.831,0,0,1-1.625-.387l-.29,1.432a4.322,4.322,0,0,0,1.848.387c1.809,0,2.844-.967,2.844-2.332a2.353,2.353,0,0,0-1.683-2.2c-.909-.416-1.219-.619-1.219-1.035,0-.368.319-.687.977-.687a2.9,2.9,0,0,1,1.316.31Z" transform="translate(3918.813 -9787.505)" fill="#fff"/><path d="M13.977-249.116c-2.012,0-3.173,1.751-3.173,3.86,0,2.051,1.006,3.831,3.067,3.831,1.886,0,3.154-1.345,3.154-3.947C17.024-247.191,16.153-249.116,13.977-249.116Zm-.048,1.4c.871,0,1.306,1.093,1.306,2.4,0,1.461-.445,2.486-1.306,2.486s-1.345-1.025-1.335-2.457C12.593-246.572,13.019-247.713,13.928-247.713Z" transform="translate(3930.64 -9787.197)" fill="#fff"/><path d="M28.084-245.621H26.556v1.78c0,1.238.058,2.409.145,3.28h-.019a25.516,25.516,0,0,0-1.025-2.38l-1.277-2.68H22.56v7.478h1.529v-1.838c0-1.335-.039-2.477-.087-3.347h.039a25.494,25.494,0,0,0,1.045,2.467l1.306,2.718h1.693Z" transform="translate(3927.31 -9790.586)" fill="#fff"/><path d="M10.8-116.089h2.6v-1.161H10.8Z" transform="translate(3946.807 -9915.049)" fill="#fff"/><path d="M26.74-239.584H24.263v-6.037h-1.7v7.478H26.74Z" transform="translate(3939.884 -9790.586)" fill="#fff"/><path d="M22.56-238.143h1.7v-7.478h-1.7Z" transform="translate(3946.187 -9790.586)" fill="#fff"/><path d="M28.084-245.621H26.556v1.78c0,1.238.058,2.409.145,3.28h-.019a25.516,25.516,0,0,0-1.025-2.38l-1.277-2.68H22.56v7.478h1.529v-1.838c0-1.335-.039-2.477-.087-3.347h.039a25.494,25.494,0,0,0,1.045,2.467l1.306,2.718h1.693Z" transform="translate(3950.449 -9790.586)" fill="#fff"/><path d="M26.807-239.565H24.263v-1.741h2.273V-242.7H24.263v-1.5h2.4v-1.422h-4.1v7.478h4.247Z" transform="translate(3958.548 -9790.586)" fill="#fff"/><g transform="translate(4032.302 -10067.365)"><path d="M.84-1.012H1.3c.5,0,.672.148.724.632,0,.052.016.164.024.236A.621.621,0,0,0,2.076,0h.636a1.341,1.341,0,0,1-.064-.4c-.02-.416-.172-.656-.484-.74a.731.731,0,0,0,.508-.78.7.7,0,0,0-.3-.588,1.389,1.389,0,0,0-.8-.156H.272V0H.84Zm0-.476v-.7h.8a.873.873,0,0,1,.212.02.307.307,0,0,1,.2.316c0,.26-.116.368-.408.368Z" transform="translate(1.926 4.833)" fill="#fff"/><path d="M8027.349,415a3.364,3.364,0,1,1-3.349,3.349A3.339,3.339,0,0,1,8027.349,415Zm0,.548a2.8,2.8,0,1,1-2.8,2.8A2.794,2.794,0,0,1,8027.349,415.548Z" transform="translate(-8024 -415)" fill="#fff" fill-rule="evenodd"/></g><rect width="3.897" height="3.897" transform="translate(3848.923 -10032.839)" fill="#fec52b"/><rect width="3.897" height="3.897" transform="translate(3788 -10032.839)" fill="#fec52b"/></g></svg>