<svg xmlns="http://www.w3.org/2000/svg" width="727.726" height="750.619" viewBox="0 0 727.726 750.619"><g transform="translate(5119.863 17394.811)"><circle cx="363.863" cy="363.863" r="363.863" transform="translate(-5119.863 -17371.916)" fill="#c2c2c2"/><path d="M0,578.626V96A96,96,0,0,1,96,0H522.75a96,96,0,0,1,96,96V578.134C554.605,681.67,439.971,750.62,309.222,750.62,178.682,750.62,64.2,681.887,0,578.626Z" transform="translate(-5065.222 -17394.811)" fill="#dbdbdb"/><g transform="translate(-4909.21 -17180.211)"><path d="M336.537,298.488,246.745,208.7a133.331,133.331,0,0,0,22.333-74.157C269.078,60.354,208.724,0,134.539,0S0,60.354,0,134.539,60.354,269.078,134.539,269.078A133.338,133.338,0,0,0,208.7,246.746l24.819,24.819.011.011,64.961,64.961a26.9,26.9,0,1,0,38.05-38.049Zm-131-65.919h0a121.207,121.207,0,1,1,27.038-27.038A121.672,121.672,0,0,1,205.533,232.569Zm14.113,6.1a134.992,134.992,0,0,0,19.022-19.022l19.085,19.085a163.283,163.283,0,0,1-19.022,19.022Zm107.378,88.356a13.444,13.444,0,0,1-19.022,0l-59.732-59.732a176.768,176.768,0,0,0,19.022-19.022L327.025,308a13.442,13.442,0,0,1,0,19.02Z" fill="#afafaf"/><g transform="translate(26.908 26.908)"><path d="M147.631,40A107.631,107.631,0,1,0,255.262,147.631,107.753,107.753,0,0,0,147.631,40Zm0,201.809a94.177,94.177,0,1,1,94.177-94.177A94.284,94.284,0,0,1,147.631,241.809Z" transform="translate(-40 -40)" fill="#afafaf"/></g></g><line x2="78" y2="78" transform="translate(-4814.5 -17086.5)" fill="none" stroke="#afafaf" stroke-linecap="round" stroke-miterlimit="10" stroke-width="14"/><line x1="78" y2="78" transform="translate(-4814.5 -17086.5)" fill="none" stroke="#afafaf" stroke-linecap="round" stroke-miterlimit="10" stroke-width="14"/></g></svg>