<svg xmlns="http://www.w3.org/2000/svg" width="44.703" height="42.226" viewBox="0 0 44.703 42.226">
  <g id="phone-call" transform="translate(-98.212 -114.215)">
    <g id="Grupo_46" data-name="Grupo 46" transform="translate(98.212 114.215)">
      <g id="Grupo_43" data-name="Grupo 43" transform="translate(4.126 1.629)">
        <path id="Caminho_12" data-name="Caminho 12" d="M157.747,141.871a5.88,5.88,0,0,1-2.165-1.377l-1.546-1.546a2.651,2.651,0,0,1,0-3.749l8.129-8.129a2.651,2.651,0,0,1,3.749,0l1.546,1.546a5.876,5.876,0,0,1,1.657,3.26h0c1.9,9.3-7.111,19.249-12.73,24.868s-12.629,11.691-21.929,9.791h0a5.876,5.876,0,0,1-3.26-1.657l-1.524-1.374a2.651,2.651,0,0,1-.1-3.843l8.124-8.124a2.651,2.651,0,0,1,3.65-.094L143.076,153a5.878,5.878,0,0,1,1.377,2.165,51.541,51.541,0,0,0,5.466-4.888C151.808,148.388,156.555,143.5,157.747,141.871Z" transform="translate(-128.799 -126.295)" fill="#ffd400"/>
      </g>
      <g id="Grupo_44" data-name="Grupo 44" transform="translate(4.126 24.663)">
        <path id="Caminho_13" data-name="Caminho 13" d="M156.387,304.465c-5.62,5.62-12.628,11.691-21.929,9.791h0a5.881,5.881,0,0,1-3.26-1.656l-1.523-1.375a2.651,2.651,0,0,1-.1-3.843l8.124-8.124a2.649,2.649,0,0,1,3.649-.094l1.728,1.557a5.884,5.884,0,0,1,1.377,2.165A51.635,51.635,0,0,0,149.919,298c.264-.264.583-.585.939-.949l6.468,6.468C157.005,303.845,156.691,304.161,156.387,304.465Z" transform="translate(-128.799 -297.048)" fill="#ffaa20"/>
      </g>
      <path id="Caminho_14" data-name="Caminho 14" d="M117.764,114.215H102.889a4.69,4.69,0,0,0-4.676,4.676v11.668a4.69,4.69,0,0,0,4.676,4.676h9.546l5.025,3.471v-3.471h.3a4.69,4.69,0,0,0,4.676-4.676V118.891A4.69,4.69,0,0,0,117.764,114.215Z" transform="translate(-98.213 -114.215)" fill="#ffe670"/>
      <path id="Caminho_15" data-name="Caminho 15" d="M120.041,139.963a4.635,4.635,0,0,1-2.277.6h-.3v3.471l-5.025-3.471h-9.545a4.69,4.69,0,0,1-4.677-4.677V124.216a4.679,4.679,0,0,1,2.023-3.846l8.83,8.736,2.61,2.582Z" transform="translate(-98.212 -119.54)" fill="#ffe670"/>
      <g id="Grupo_45" data-name="Grupo 45" transform="translate(3.474 9.066)">
        <ellipse id="Elipse_10" data-name="Elipse 10" cx="1.837" cy="1.837" rx="1.837" ry="1.837" fill="#e67500"/>
        <ellipse id="Elipse_11" data-name="Elipse 11" cx="1.837" cy="1.837" rx="1.837" ry="1.837" transform="translate(6.803)" fill="#ffb84d"/>
        <path id="Caminho_16" data-name="Caminho 16" d="M177.58,187.712a1.837,1.837,0,1,1-2.61-2.582Z" transform="translate(-167.59 -184.63)" fill="#e67500"/>
        <ellipse id="Elipse_12" data-name="Elipse 12" cx="1.837" cy="1.837" rx="1.837" ry="1.837" transform="translate(13.606)" fill="#ffb84d"/>
      </g>
    </g>
  </g>
</svg>
