<svg xmlns="http://www.w3.org/2000/svg" width="148.73" height="163.42" viewBox="0 0 148.73 163.42">
  <g id="skyline_1_" data-name="skyline (1)" transform="translate(-23.012)">
    <g id="Grupo_523" data-name="Grupo 523" transform="translate(23.011)">
      <g id="Grupo_522" data-name="Grupo 522">
        <path id="Caminho_530" data-name="Caminho 530" d="M168.988,157.912H164.4V13.771a2.754,2.754,0,0,0-2.754-2.754H110.23a2.754,2.754,0,0,0-2.754,2.754V25.706h-5.508V13.771a2.754,2.754,0,0,0-2.754-2.754H87.278V2.754a2.754,2.754,0,1,0-5.508,0v8.263H69.834a2.754,2.754,0,0,0-2.754,2.754V25.706H58.817a2.754,2.754,0,0,0-2.754,2.754V51.413H33.11a2.754,2.754,0,0,0-2.754,2.754V157.911H25.765a2.754,2.754,0,0,0,0,5.509H168.988a2.754,2.754,0,0,0,0-5.508ZM72.588,16.526h23.87v9.181H72.588ZM63.407,157.912H61.571v-4.59a2.754,2.754,0,1,0-5.508,0v4.59H54.226v-9.181h9.181ZM81.769,87.218v70.693H68.915V145.977a2.754,2.754,0,0,0-2.754-2.754H51.472a2.754,2.754,0,0,0-2.754,2.754v11.935H35.864V56.922h45.9Zm2.754-35.805H61.571v-20.2h45.9V84.464h-20.2V75.283H95.54a2.754,2.754,0,1,0,0-5.508H87.278V60.594H95.54a2.754,2.754,0,0,0,0-5.508H87.278v-.918A2.754,2.754,0,0,0,84.523,51.413Zm48.659,106.5h-45.9V89.973h45.9Zm25.706,0h-20.2V83.546a2.754,2.754,0,1,0-5.508,0v.918h-5.508v-.918a2.754,2.754,0,0,0-5.508,0v.918h-9.181V16.526h45.9V157.912Z" transform="translate(-23.011)" fill="#717171"/>
        <path id="Caminho_531" data-name="Caminho 531" d="M255.878,356.07a2.754,2.754,0,0,0,2.754-2.754V301.9a2.754,2.754,0,1,0-5.508,0v51.413A2.754,2.754,0,0,0,255.878,356.07Z" transform="translate(-179.677 -203.667)" fill="#717171"/>
        <path id="Caminho_532" data-name="Caminho 532" d="M290.4,356.07a2.754,2.754,0,0,0,2.754-2.754V301.9a2.754,2.754,0,1,0-5.508,0v51.413A2.754,2.754,0,0,0,290.4,356.07Z" transform="translate(-203.176 -203.667)" fill="#717171"/>
        <path id="Caminho_533" data-name="Caminho 533" d="M324.911,356.07a2.754,2.754,0,0,0,2.754-2.754V301.9a2.754,2.754,0,1,0-5.508,0v51.413A2.754,2.754,0,0,0,324.911,356.07Z" transform="translate(-226.676 -203.667)" fill="#717171"/>
        <path id="Caminho_534" data-name="Caminho 534" d="M336.417,89.721a2.754,2.754,0,0,0,2.754-2.754V83.294a2.754,2.754,0,1,0-5.508,0v3.672A2.754,2.754,0,0,0,336.417,89.721Z" transform="translate(-234.509 -54.833)" fill="#717171"/>
        <path id="Caminho_535" data-name="Caminho 535" d="M370.934,89.721a2.754,2.754,0,0,0,2.754-2.754V83.294a2.754,2.754,0,1,0-5.508,0v3.672A2.754,2.754,0,0,0,370.934,89.721Z" transform="translate(-258.009 -54.833)" fill="#717171"/>
        <path id="Caminho_536" data-name="Caminho 536" d="M405.451,89.721a2.754,2.754,0,0,0,2.754-2.754V83.294a2.754,2.754,0,0,0-5.508,0v3.672A2.754,2.754,0,0,0,405.451,89.721Z" transform="translate(-281.509 -54.833)" fill="#717171"/>
        <path id="Caminho_537" data-name="Caminho 537" d="M336.417,147.248a2.754,2.754,0,0,0,2.754-2.754v-3.672a2.754,2.754,0,1,0-5.508,0v3.672A2.754,2.754,0,0,0,336.417,147.248Z" transform="translate(-234.509 -93.999)" fill="#717171"/>
        <path id="Caminho_538" data-name="Caminho 538" d="M370.934,147.248a2.754,2.754,0,0,0,2.754-2.754v-3.672a2.754,2.754,0,1,0-5.508,0v3.672A2.754,2.754,0,0,0,370.934,147.248Z" transform="translate(-258.009 -93.999)" fill="#717171"/>
        <path id="Caminho_539" data-name="Caminho 539" d="M405.451,147.248a2.754,2.754,0,0,0,2.754-2.754v-3.672a2.754,2.754,0,0,0-5.508,0v3.672A2.754,2.754,0,0,0,405.451,147.248Z" transform="translate(-281.509 -93.999)" fill="#717171"/>
        <path id="Caminho_540" data-name="Caminho 540" d="M336.417,204.777a2.754,2.754,0,0,0,2.754-2.754V198.35a2.754,2.754,0,1,0-5.508,0v3.672A2.754,2.754,0,0,0,336.417,204.777Z" transform="translate(-234.509 -133.166)" fill="#717171"/>
        <path id="Caminho_541" data-name="Caminho 541" d="M370.934,204.777a2.754,2.754,0,0,0,2.754-2.754V198.35a2.754,2.754,0,1,0-5.508,0v3.672A2.754,2.754,0,0,0,370.934,204.777Z" transform="translate(-258.009 -133.166)" fill="#717171"/>
        <path id="Caminho_542" data-name="Caminho 542" d="M405.451,204.777a2.754,2.754,0,0,0,2.754-2.754V198.35a2.754,2.754,0,0,0-5.508,0v3.672A2.754,2.754,0,0,0,405.451,204.777Z" transform="translate(-281.509 -133.166)" fill="#717171"/>
        <path id="Caminho_543" data-name="Caminho 543" d="M94.8,227.788a2.754,2.754,0,0,0,2.754-2.754v-3.672a2.754,2.754,0,0,0-5.508,0v3.672A2.754,2.754,0,0,0,94.8,227.788Z" transform="translate(-70.011 -148.832)" fill="#717171"/>
        <path id="Caminho_544" data-name="Caminho 544" d="M129.316,227.788a2.754,2.754,0,0,0,2.754-2.754v-3.672a2.754,2.754,0,0,0-5.508,0v3.672A2.754,2.754,0,0,0,129.316,227.788Z" transform="translate(-93.511 -148.832)" fill="#717171"/>
        <path id="Caminho_545" data-name="Caminho 545" d="M163.833,227.788a2.754,2.754,0,0,0,2.754-2.754v-3.672a2.754,2.754,0,0,0-5.508,0v3.672A2.754,2.754,0,0,0,163.833,227.788Z" transform="translate(-117.01 -148.832)" fill="#717171"/>
        <path id="Caminho_546" data-name="Caminho 546" d="M94.8,285.316a2.754,2.754,0,0,0,2.754-2.754v-3.672a2.754,2.754,0,1,0-5.508,0v3.672A2.754,2.754,0,0,0,94.8,285.316Z" transform="translate(-70.011 -187.998)" fill="#717171"/>
        <path id="Caminho_547" data-name="Caminho 547" d="M129.316,285.316a2.754,2.754,0,0,0,2.754-2.754v-3.672a2.754,2.754,0,1,0-5.508,0v3.672A2.754,2.754,0,0,0,129.316,285.316Z" transform="translate(-93.511 -187.998)" fill="#717171"/>
        <path id="Caminho_548" data-name="Caminho 548" d="M163.833,285.316a2.754,2.754,0,0,0,2.754-2.754v-3.672a2.754,2.754,0,1,0-5.508,0v3.672A2.754,2.754,0,0,0,163.833,285.316Z" transform="translate(-117.01 -187.998)" fill="#717171"/>
        <path id="Caminho_549" data-name="Caminho 549" d="M94.8,342.844a2.754,2.754,0,0,0,2.754-2.754v-3.672a2.754,2.754,0,1,0-5.508,0v3.672A2.754,2.754,0,0,0,94.8,342.844Z" transform="translate(-70.011 -227.165)" fill="#717171"/>
        <path id="Caminho_550" data-name="Caminho 550" d="M129.316,342.844a2.754,2.754,0,0,0,2.754-2.754v-3.672a2.754,2.754,0,1,0-5.508,0v3.672A2.754,2.754,0,0,0,129.316,342.844Z" transform="translate(-93.511 -227.165)" fill="#717171"/>
        <path id="Caminho_551" data-name="Caminho 551" d="M163.833,342.844a2.754,2.754,0,0,0,2.754-2.754v-3.672a2.754,2.754,0,1,0-5.508,0v3.672A2.754,2.754,0,0,0,163.833,342.844Z" transform="translate(-117.01 -227.165)" fill="#717171"/>
        <path id="Caminho_552" data-name="Caminho 552" d="M94.8,400.372a2.754,2.754,0,0,0,2.754-2.754v-3.672a2.754,2.754,0,0,0-5.508,0v3.672A2.754,2.754,0,0,0,94.8,400.372Z" transform="translate(-70.011 -266.331)" fill="#717171"/>
        <path id="Caminho_553" data-name="Caminho 553" d="M129.316,400.372a2.754,2.754,0,0,0,2.754-2.754v-3.672a2.754,2.754,0,0,0-5.508,0v3.672A2.754,2.754,0,0,0,129.316,400.372Z" transform="translate(-93.511 -266.331)" fill="#717171"/>
        <path id="Caminho_554" data-name="Caminho 554" d="M163.833,400.372a2.754,2.754,0,0,0,2.754-2.754v-3.672a2.754,2.754,0,0,0-5.508,0v3.672A2.754,2.754,0,0,0,163.833,400.372Z" transform="translate(-117.01 -266.331)" fill="#717171"/>
        <path id="Caminho_555" data-name="Caminho 555" d="M405.451,262.3a2.754,2.754,0,0,0,2.754-2.754v-3.672a2.754,2.754,0,0,0-5.508,0v3.672A2.754,2.754,0,0,0,405.451,262.3Z" transform="translate(-281.509 -172.332)" fill="#717171"/>
        <path id="Caminho_556" data-name="Caminho 556" d="M405.451,319.833a2.754,2.754,0,0,0,2.754-2.754v-3.672a2.754,2.754,0,0,0-5.508,0v3.672A2.754,2.754,0,0,0,405.451,319.833Z" transform="translate(-281.509 -211.498)" fill="#717171"/>
        <path id="Caminho_557" data-name="Caminho 557" d="M405.451,377.361a2.754,2.754,0,0,0,2.754-2.754v-3.672a2.754,2.754,0,0,0-5.508,0v3.672A2.754,2.754,0,0,0,405.451,377.361Z" transform="translate(-281.509 -250.664)" fill="#717171"/>
        <path id="Caminho_558" data-name="Caminho 558" d="M405.451,434.889a2.754,2.754,0,0,0,2.754-2.754v-3.672a2.754,2.754,0,0,0-5.508,0v3.672A2.754,2.754,0,0,0,405.451,434.889Z" transform="translate(-281.509 -289.831)" fill="#717171"/>
        <path id="Caminho_559" data-name="Caminho 559" d="M200.127,129.316a2.754,2.754,0,0,0-2.754-2.754H175.338a2.754,2.754,0,0,0,0,5.508h22.034A2.754,2.754,0,0,0,200.127,129.316Z" transform="translate(-124.843 -86.166)" fill="#717171"/>
      </g>
    </g>
  </g>
</svg>
