<svg xmlns="http://www.w3.org/2000/svg" xmlns:xlink="http://www.w3.org/1999/xlink" width="64.147" height="55.997" viewBox="0 0 64.147 55.997">
  <defs>
    <linearGradient id="linear-gradient" x1="-0.254" y1="-0.131" x2="1.133" y2="1.093" gradientUnits="objectBoundingBox">
      <stop offset="0" stop-color="#fec52b"/>
      <stop offset="1" stop-color="#ffaa20"/>
    </linearGradient>
  </defs>
  <path id="skype" d="M61.56,58.358A8.24,8.24,0,0,1,60.072,53.5c0-.01,0-.02,0-.03a28.009,28.009,0,0,0-37.624-26.3,8.256,8.256,0,0,1-5.067.241A13.673,13.673,0,0,0,2.588,48.575a8.239,8.239,0,0,1,1.487,4.861v.03A28.009,28.009,0,0,0,41.7,79.763a8.256,8.256,0,0,1,5.067-.241A13.673,13.673,0,0,0,61.56,58.358ZM33.1,48.447c5.646,1.343,14.177,3.371,14.177,12.768a10.239,10.239,0,0,1-6.42,9.943A23.328,23.328,0,0,1,31.677,72.6c-8.853,0-14.445-6.884-14.679-7.177a4.211,4.211,0,0,1,6.585-5.251c.013.016,3.357,3.856,8.094,4.006,5.7.181,7.007-1.516,7.175-2.965.206-1.769-1.368-3.068-7.7-4.575-5.37-1.277-13.485-3.207-13.485-11.861,0-2.7,1.1-11.489,15.2-11.489,8.907,0,14.164,7.012,14.383,7.311a4.211,4.211,0,0,1-6.767,5.015,12.65,12.65,0,0,0-7.617-3.9c-3.411-.324-6.779.906-6.779,2.723C26.087,46.362,27.054,47.01,33.1,48.447Z" transform="translate(0 -25.468)" fill="url(#linear-gradient)"/>
</svg>
