<svg id="team_1_" data-name="team (1)" xmlns="http://www.w3.org/2000/svg" width="147.531" height="152.106" viewBox="0 0 147.531 152.106">
  <g id="Grupo_89" data-name="Grupo 89" transform="translate(125.945 97.473)">
    <g id="Grupo_88" data-name="Grupo 88">
      <circle id="Elipse_20" data-name="Elipse 20" cx="2.971" cy="2.971" r="2.971" fill="#717171"/>
    </g>
  </g>
  <g id="Grupo_91" data-name="Grupo 91" transform="translate(12.853 97.473)">
    <g id="Grupo_90" data-name="Grupo 90">
      <circle id="Elipse_21" data-name="Elipse 21" cx="2.971" cy="2.971" r="2.971" fill="#717171"/>
    </g>
  </g>
  <g id="Grupo_93" data-name="Grupo 93" transform="translate(0)">
    <g id="Grupo_92" data-name="Grupo 92">
      <path id="Caminho_48" data-name="Caminho 48" d="M152.26,146.163H126.747l-.156-73.015a2.971,2.971,0,0,0-2.971-2.965h-.007a2.971,2.971,0,0,0-2.965,2.978l.156,73h-8.63l-.076-32.485a2.971,2.971,0,0,0-2.971-2.964h-.007a2.971,2.971,0,0,0-2.964,2.978l.076,32.471H99.018V106.841a16.3,16.3,0,0,0,15.023-16.047V62a32.252,32.252,0,0,0-2.83-13.212,24.6,24.6,0,0,1,15.531,6.837,23.031,23.031,0,0,1,7.151,16.628l.054,16.909a2.971,2.971,0,0,0,2.971,2.962h.01a2.972,2.972,0,0,0,2.962-2.981l-.054-16.905a28.925,28.925,0,0,0-8.966-20.887A30.369,30.369,0,0,0,119.4,44.387a15.71,15.71,0,0,0-10.827-27.1h-.034a15.772,15.772,0,0,0-7.249,1.785,2.971,2.971,0,1,0,2.756,5.265,9.668,9.668,0,0,1,4.506-1.108,9.779,9.779,0,0,1,.042,19.558,2.961,2.961,0,0,0-.376.027c-.158.007-.316.012-.475.021a33.813,33.813,0,0,0-17.183-12.3,17.43,17.43,0,1,0-22.421.455A33.783,33.783,0,0,0,52.31,42.815c-.471-.021-.941-.034-1.408-.034-.222,0-.444,0-.665.008-.054,0-.108-.008-.163-.008A9.779,9.779,0,1,1,54.736,24.4a2.971,2.971,0,0,0,2.839-5.221A15.716,15.716,0,0,0,39.751,44.845,29.6,29.6,0,0,0,20.553,72.3V89.152a2.971,2.971,0,1,0,5.943,0V72.3c0-12.323,9.838-22.461,22.324-23.486A32.253,32.253,0,0,0,46,62V90.794a16.315,16.315,0,0,0,15.524,16.084v39.284H53.431V113.684a2.971,2.971,0,1,0-5.943,0v32.479h-7.3V73.185a2.971,2.971,0,1,0-5.943,0v72.978H10.671a2.971,2.971,0,1,0,0,5.943H152.26a2.971,2.971,0,1,0,0-5.943ZM67.594,17.431A11.488,11.488,0,1,1,79.082,28.92,11.5,11.5,0,0,1,67.594,17.431Zm28.452,42.6A2.971,2.971,0,0,0,93.075,63v83.162H82.492V104.825a2.971,2.971,0,1,0-5.943,0v41.338h-9.08V63a2.971,2.971,0,1,0-5.943,0v37.92a10.351,10.351,0,0,1-9.581-10.127V62a26.39,26.39,0,0,1,4.325-14.475,28.606,28.606,0,0,1,47.525.033A26.392,26.392,0,0,1,108.1,62V90.795a10.328,10.328,0,0,1-9.08,10.07V63A2.971,2.971,0,0,0,96.046,60.03Z" transform="translate(-7.7)" fill="#717171"/>
    </g>
  </g>
</svg>
