<svg xmlns="http://www.w3.org/2000/svg" width="72.37" height="71.877" viewBox="0 0 72.37 71.877">
  <path id="União_1" data-name="União 1" d="M44.863,67.163a16.122,16.122,0,0,1-2.23-20.008.844.844,0,0,1,1.425.9,14.431,14.431,0,1,0,22.4-2.494A14.346,14.346,0,0,0,48.576,43.55a.844.844,0,0,1-.9-1.428,16.113,16.113,0,1,1-2.812,25.042Zm10.54.614V66.737a.844.844,0,1,1,1.688,0v1.041a.844.844,0,1,1-1.687,0ZM29.882,63.047a1.232,1.232,0,0,1,0-2.463h7.87a19.07,19.07,0,0,0,.832,2.463Zm-5.8-.36a1.231,1.231,0,1,1,.871.36A1.236,1.236,0,0,1,24.086,62.686Zm-20.392.36A3.7,3.7,0,0,1,0,59.352V8.619A3.7,3.7,0,0,1,3.695,4.926H7.881V4.187a4.187,4.187,0,0,1,8.374,0v.739H27.322V4.187a4.187,4.187,0,1,1,8.374,0v.739H46.762V4.187a4.187,4.187,0,1,1,8.373,0v.739h4.218a3.7,3.7,0,0,1,3.694,3.694V37.893a19.039,19.039,0,0,0-2.463-.757V8.619a1.233,1.233,0,0,0-1.231-1.231H55.135v.923a4.187,4.187,0,1,1-8.373,0V7.388H35.7v.923a4.187,4.187,0,1,1-8.374,0V7.388H16.255v.923a4.187,4.187,0,0,1-8.374,0V7.388H3.695A1.233,1.233,0,0,0,2.462,8.619v8.62H51.811a1.231,1.231,0,1,1,0,2.462H2.462v39.65a1.233,1.233,0,0,0,1.232,1.231H20.031a1.232,1.232,0,0,1,0,2.463Zm45.53-58.86V8.312a1.724,1.724,0,0,0,3.448,0V4.187a1.724,1.724,0,1,0-3.448,0Zm-19.44,0V8.312a1.724,1.724,0,0,0,3.448,0V4.187a1.724,1.724,0,1,0-3.448,0Zm-19.44,0V8.312a1.724,1.724,0,0,0,3.448,0V4.187a1.724,1.724,0,1,0-3.448,0Zm43.009,51.58A2.888,2.888,0,0,1,53.7,54.4l-2.859-2.86a.844.844,0,0,1,1.193-1.193L54.89,53.2a2.9,2.9,0,0,1,2.74,0L63.4,47.433a.844.844,0,0,1,1.194,1.193L58.824,54.4a2.907,2.907,0,1,1-5.471,1.37Zm1.688,0a1.22,1.22,0,1,0,1.219-1.219A1.221,1.221,0,0,0,55.041,55.767ZM19.785,52.949a5.172,5.172,0,1,1,5.172,5.172A5.178,5.178,0,0,1,19.785,52.949Zm2.462,0a2.709,2.709,0,1,0,2.71-2.709A2.713,2.713,0,0,0,22.247,52.949Zm-15.6,0a5.172,5.172,0,1,1,5.172,5.172A5.178,5.178,0,0,1,6.65,52.949Zm2.463,0a2.709,2.709,0,1,0,2.709-2.709A2.712,2.712,0,0,0,9.113,52.949ZM67.23,56.624a.844.844,0,1,1,0-1.688h1.041a.844.844,0,0,1,0,1.688ZM44.25,56.6a.844.844,0,1,1,0-1.687H45.29a.844.844,0,1,1,0,1.687Zm.614-11.034a.843.843,0,1,1,.6.248A.845.845,0,0,1,44.863,45.563ZM55.43,44.8v-1.04a.844.844,0,0,1,1.688,0V44.8a.844.844,0,0,1-1.688,0ZM19.785,40.143a5.172,5.172,0,1,1,5.172,5.172A5.177,5.177,0,0,1,19.785,40.143Zm2.462,0a2.709,2.709,0,1,0,2.71-2.709A2.713,2.713,0,0,0,22.247,40.143Zm-15.6,0a5.172,5.172,0,1,1,5.172,5.172A5.177,5.177,0,0,1,6.65,40.143Zm2.463,0a2.709,2.709,0,1,0,2.709-2.709A2.713,2.713,0,0,0,9.113,40.143ZM46.054,27.337a5.172,5.172,0,1,1,5.172,5.172A5.178,5.178,0,0,1,46.054,27.337Zm2.463,0a2.709,2.709,0,1,0,2.709-2.709A2.712,2.712,0,0,0,48.517,27.337Zm-15.6,0a5.172,5.172,0,1,1,5.172,5.172A5.178,5.178,0,0,1,32.919,27.337Zm2.463,0a2.709,2.709,0,1,0,2.709-2.709A2.712,2.712,0,0,0,35.382,27.337Zm-15.6,0a5.172,5.172,0,1,1,5.172,5.172A5.178,5.178,0,0,1,19.785,27.337Zm2.462,0a2.709,2.709,0,1,0,2.71-2.709A2.713,2.713,0,0,0,22.247,27.337Zm-15.6,0a5.172,5.172,0,1,1,5.172,5.172A5.178,5.178,0,0,1,6.65,27.337Zm2.463,0a2.709,2.709,0,1,0,2.709-2.709A2.712,2.712,0,0,0,9.113,27.337Zm46.753-8a1.23,1.23,0,1,1,.871.361A1.242,1.242,0,0,1,55.866,19.341Z" transform="translate(0 0)" fill="#717171"/>
</svg>
