<svg xmlns="http://www.w3.org/2000/svg" xmlns:xlink="http://www.w3.org/1999/xlink" width="56.002" height="56.002" viewBox="0 0 56.002 56.002">
  <defs>
    <linearGradient id="linear-gradient" y1="-0.028" x2="1.116" y2="1.109" gradientUnits="objectBoundingBox">
      <stop offset="0" stop-color="#fec52b"/>
      <stop offset="1" stop-color="#ffaa20"/>
    </linearGradient>
  </defs>
  <g id="whatsapp" transform="translate(0.001 0.001)">
    <path id="Subtração_1" data-name="Subtração 1" d="M-1071.993-11866a27.794,27.794,0,0,1-15.4-4.629l-10.762,3.441,3.489-10.4A27.689,27.689,0,0,1-1100-11894a28.029,28.029,0,0,1,27.993-28h.015a28.029,28.029,0,0,1,27.993,28A28.028,28.028,0,0,1-1071.993-11866Zm-10.55-43.193a4.07,4.07,0,0,0-2.863,1l-.075.076a8.957,8.957,0,0,0-2.789,6.739c0,3.39,2.058,6.711,3.285,8.388l.042.059c.028.037.078.109.154.219l.021.029c3.968,5.747,8.857,10.031,13.766,12.064,3.773,1.563,6.379,2.292,8.2,2.292a7.318,7.318,0,0,0,1.607-.186c2.178-.47,4.829-2.076,5.493-3.952a6.983,6.983,0,0,0,.479-3.884c-.155-.272-.52-.449-1.073-.716l-.005,0c-.151-.072-.314-.15-.483-.236-.047-.023-4.747-2.361-5.58-2.65a2.014,2.014,0,0,0-.711-.144,1.569,1.569,0,0,0-1.3.754l-.182.255-.15.211a26.828,26.828,0,0,1-1.855,2.431,1.574,1.574,0,0,1-1.168.475,2.1,2.1,0,0,1-.8-.164l-.143-.059-.106-.043a20.572,20.572,0,0,1-6.318-3.946,24.546,24.546,0,0,1-4.542-5.646,1.292,1.292,0,0,1,.312-1.722l.017-.02c.237-.294.472-.544.7-.785l.008-.009c.166-.177.338-.359.511-.559l.073-.085a4.537,4.537,0,0,0,.833-1.2,1.682,1.682,0,0,0-.12-1.517c-.131-.279-.929-2.214-1.633-3.921l-.036-.089-.049-.119c-.309-.75-.6-1.446-.8-1.931-.532-1.274-.929-1.345-1.777-1.382C-1081.845-11909.175-1082.176-11909.192-1082.543-11909.192Z" transform="translate(1100 11922)" fill="url(#linear-gradient)"/>
  </g>
</svg>
